<?xml version="1.0" encoding="utf-8"?>
<!-- Generator: Adobe Illustrator 13.0.0, SVG Export Plug-In . SVG Version: 6.00 Build 14948)  -->
<!DOCTYPE svg PUBLIC "-//W3C//DTD SVG 1.1//EN" "http://www.w3.org/Graphics/SVG/1.1/DTD/svg11.dtd">
<svg version="1.1" id="Layer_1" xmlns="http://www.w3.org/2000/svg" xmlns:xlink="http://www.w3.org/1999/xlink" x="0px" y="0px"
	 width="140.73px" height="58.172px" viewBox="0 0 140.73 58.172" enable-background="new 0 0 140.73 58.172" xml:space="preserve">
<path fill="none" stroke="#000000" stroke-width="2" d="M43.429,24.179c0.216-1.338,0.045-0.679,0.353-1.868
	c0.308-1.19,0.656-2.298,1.043-3.309c0.387-1.012,0.812-1.927,1.266-2.73c0.455-0.803,0.941-1.495,1.453-2.062
	c0.513-0.565,1.048-1.005,1.605-1.303c0.556-0.298,1.132-0.454,1.723-0.454s1.167,0.156,1.725,0.454
	c0.557,0.298,1.094,0.737,1.604,1.303s0.998,1.258,1.453,2.062s0.879,1.719,1.266,2.73c0.388,1.011,0.736,2.119,1.043,3.309
	c0.309,1.189,0.572,2.46,0.789,3.797c0.216,1.338,0.384,2.742,0.498,4.197c0.114,1.455,0.174,2.963,0.174,4.508
	c0,1.543-0.06,3.053-0.174,4.506c-0.114,1.455-0.282,2.859-0.498,4.197s-0.479,2.607-0.789,3.799
	c-0.307,1.188-0.655,2.297-1.043,3.31c-0.387,1.012-0.811,1.926-1.266,2.729c-0.456,0.805-0.942,1.496-1.453,2.062
	s-1.048,1.005-1.604,1.302c-0.558,0.3-1.134,0.455-1.725,0.455c-0.59,0-1.167-0.155-1.723-0.455
	c-0.56-0.297-1.094-0.735-1.605-1.302c-0.511-0.564-0.998-1.258-1.453-2.062c-0.453-0.806-0.878-1.72-1.266-2.729
	c-0.388-1.013-0.736-2.12-1.043-3.31c-0.308-1.189-0.205-0.766-0.422-2.104"/>
<path fill="none" stroke="#000000" d="M48.301,24.127c2.259,0,4.089,4.784,4.089,10.686c0,5.902-1.83,10.688-4.089,10.688"/>
<path fill="none" stroke="#000000" stroke-width="0.75" d="M46.119,24.127c2.257,0,4.087,4.784,4.087,10.686
	c0,5.902-1.83,10.688-4.087,10.688"/>
<path fill="none" stroke="#000000" stroke-width="0.75" d="M43.936,24.127c2.257,0,4.087,4.784,4.087,10.686
	c0,5.902-1.83,10.688-4.087,10.688"/>
<path fill="none" stroke="#000000" stroke-width="0.75" d="M41.753,24.127c2.257,0,4.087,4.784,4.087,10.686
	c0,5.902-1.83,10.688-4.087,10.688"/>
<path fill="none" stroke="#000000" stroke-width="0.75" d="M39.571,24.127c2.257,0,4.087,4.784,4.087,10.686
	c0,5.902-1.83,10.688-4.087,10.688"/>
<path fill="none" stroke="#000000" stroke-width="0.75" d="M37.388,24.127c2.257,0,4.087,4.784,4.087,10.686
	c0,5.902-1.83,10.688-4.087,10.688"/>
<path fill="none" stroke="#000000" stroke-width="0.75" d="M35.206,24.127c2.257,0,4.086,4.784,4.086,10.686
	c0,5.902-1.83,10.688-4.086,10.688"/>
<path fill="none" stroke="#000000" stroke-width="0.75" d="M33.023,24.127c2.257,0,4.086,4.784,4.086,10.686
	c0,5.902-1.83,10.688-4.086,10.688"/>
<path fill="none" stroke="#000000" d="M23.98,36.966"/>
<path fill="none" stroke="#000000" d="M26.422,30.965c0.104-0.639,0.252-1.559,0.399-2.127c0.146-0.568,0.312-1.098,0.499-1.582
	c0.185-0.483,0.387-0.92,0.604-1.305c0.219-0.384,0.45-0.715,0.694-0.985s0.5-0.48,0.769-0.623c0.267-0.143,0.542-0.217,0.821-0.217
	c0.283,0,0.56,0.075,0.824,0.217c0.266,0.142,0.522,0.353,0.767,0.623c0.245,0.271,0.479,0.602,0.694,0.985
	c0.218,0.384,0.42,0.821,0.605,1.305c0.185,0.483,0.353,1.013,0.5,1.582c0.146,0.569,0.271,1.176,0.376,1.814
	c0.104,0.64,0.184,1.312,0.236,2.007c0.057,0.696,0.083,1.416,0.083,2.153s-0.026,1.459-0.083,2.152
	c-0.055,0.696-0.135,1.368-0.236,2.008c-0.104,0.639-0.229,1.245-0.376,1.814c-0.147,0.566-0.314,1.098-0.5,1.581
	c-0.187,0.483-0.389,0.921-0.605,1.306s-0.45,0.715-0.694,0.984c-0.242,0.271-0.5,0.48-0.767,0.623
	c-0.267,0.142-0.54,0.219-0.823,0.219c-0.282,0-0.557-0.076-0.821-0.218c-0.268-0.142-0.522-0.353-0.769-0.623
	s-0.477-0.601-0.694-0.984c-0.218-0.385-0.42-0.821-0.604-1.306c-0.187-0.483-0.354-1.014-0.499-1.581
	c-0.147-0.569-0.312-1.595-0.415-2.233"/>
<path fill="none" stroke="#000000" d="M23.98,32.659"/>
<path fill="none" stroke="#000000" stroke-width="2" d="M131.181,12.454c4.722,0,8.55,10.01,8.55,22.358
	c0,12.351-3.828,22.358-8.55,22.358"/>
<line fill="none" stroke="#000000" stroke-width="2" x1="50.872" y1="12.454" x2="131.293" y2="12.454"/>
<line fill="none" stroke="#000000" stroke-width="2" x1="50.524" y1="57.159" x2="131.293" y2="57.159"/>
<line fill="none" stroke="#000000" x1="48.301" y1="24.127" x2="30.05" y2="24.127"/>
<line fill="none" stroke="#000000" x1="48.301" y1="45.479" x2="30.05" y2="45.479"/>
<line fill="none" stroke="#000000" stroke-width="0.35" x1="26.805" y1="46.646" x2="13.559" y2="46.646"/>
<line fill="none" stroke="#000000" stroke-width="0.35" x1="26.805" y1="23.036" x2="13.476" y2="23.036"/>
<rect x="0" y="30.878" fill="none" width="9.334" height="8.269"/>
<text transform="matrix(1 0 0 1 -2.443790e-04 38.5752)" font-family="'Times-Roman'" font-size="11">M</text>
<path fill="none" stroke="#000000" stroke-width="0.75" d="M23.353,33.677c0-0.846,0.301-1.635,0.707-1.772l4.452-1.519
	c1.076-0.368,2.093,0.614,2.093,2.253v4.288c0,1.638-1.017,2.621-2.093,2.253l-4.452-1.519c-0.406-0.138-0.707-0.927-0.707-1.771
	V33.677z"/>
<line fill="none" stroke="#000000" stroke-width="0.35" x1="13.632" y1="31.23" x2="13.632" y2="38.73"/>
<line fill="none" stroke="#000000" stroke-width="0.35" x1="131.744" y1="12.48" x2="131.744" y2="4.789"/>
<line fill="none" stroke="#000000" stroke-width="0.35" x1="50.94" y1="12.454" x2="50.94" y2="4.789"/>
<polygon points="51.099,4.847 55.184,3.914 59.27,2.981 59.27,4.847 59.27,6.711 55.184,5.78 "/>
<polygon points="131.623,4.739 127.537,5.672 123.452,6.605 123.452,4.739 123.452,2.875 127.537,3.806 "/>
<rect x="88.448" y="1.48" fill="none" width="8.875" height="7.5"/>
<text transform="matrix(1 0 0 1 88.449 8.3105)" font-family="'Times-Roman'" font-size="10">L</text>
<line fill="none" stroke="#000000" stroke-width="0.35" x1="58.888" y1="4.875" x2="86.511" y2="4.875"/>
<line fill="none" stroke="#000000" stroke-width="0.35" x1="96.013" y1="4.875" x2="123.825" y2="4.875"/>
<polygon points="13.496,23.136 14.429,27.221 15.362,31.307 13.496,31.307 11.631,31.307 12.563,27.221 "/>
<polygon points="13.498,46.688 12.564,42.602 11.631,38.518 13.498,38.518 15.362,38.518 14.43,42.602 "/>
<g>
	<g id="XMLID_3_">
		<path d="M126.235,30.016c0.398,3.711,0.2,7.682-0.102,11.41c-0.06,0.78-0.038,1.53-0.198,1.95c-0.33,0.86-1.521,1.34-1.99,1.89
			c-0.44-0.279-0.59-0.85-1.15-1c-0.38,0.45-0.22,1.15-0.3,1.75c-0.14,1.09-0.42,2.25-0.55,3.291c-2.2,0.049-4.61,0.17-6.82,0.049
			c0.05-1.818,0.5-3.818,0.74-5.979c0.17-1.439,0.31-3.05,0.4-4.689c0.028-0.529,0.198-1.181,0.1-1.601
			c-0.1-0.45-0.74-0.851-1.09-1.19c-0.42-0.398-0.892-0.658-1.102-1.198c0.302-0.46,0.71-0.761,1.15-1.19
			c0.3-0.3,1.01-0.869,1.09-1.25c0.08-0.369-0.06-1.08-0.1-1.64c-0.182-3.21-0.682-6.24-1.142-9.32c-0.078-0.5-0.25-1.29-0.1-1.45
			c2.08-0.14,4.85,0.01,6.97,0.1c0.32,1.69,0.46,3.73,0.802,5.63c0.698-0.03,0.868-0.59,1.25-0.95c0.38,0.06,0.6,0.41,0.938,0.75
			c0.42,0.42,0.93,0.47,1,1.25c0.021,0.23-0.05,0.57-0.05,0.85C125.985,28.406,126.145,29.206,126.235,30.016z M125.635,41.025
			c0.602-4.51,0.29-8.619-0.05-12.859c-0.05-0.61-0.02-1.33-0.148-1.69c-0.11-0.32-0.892-1.14-1.24-1.1
			c-0.36,0.04-0.79,0.78-0.9,1.05c0.38,0.01,0.521-0.77,0.9-0.8c0.45-0.03,1.03,0.93,1.09,1.3c0.17,0.94,0.17,1.99,0.25,3.04
			c0.25,3.28,0.18,6.87-0.1,10.07c-0.11,1.3-0.11,2.659-0.4,3.38C125.505,43.266,125.495,42.076,125.635,41.025z M124.845,43.516
			c-0.28,0.211-0.45,0.642-0.802,0.602c-0.54-0.051-1.27-1.811-1.898-1.891c-0.34,2.01-0.54,4.391-0.94,6.181
			c-1.6,0.079-3.56,0.06-5.09,0.05c0.47-3.189,0.92-7.17,1.1-10.971c0.012-0.221,0.102-0.449,0.052-0.641
			c-0.092-0.369-0.65-0.729-0.95-1.05c-0.36-0.39-0.67-0.729-0.94-1.101c0.2-0.409,0.61-0.609,0.94-0.939
			c0.25-0.25,0.818-0.699,0.95-1c0.148-0.35-0.03-0.811-0.052-1.25c-0.158-3.27-0.648-7.69-1.1-10.66c1.65-0.14,3.58,0.03,5.14,0
			c0.4,1.21,0.16,2.76,0.74,3.69c0.07-1.17-0.21-2.84-0.54-3.94c-1.82-0.07-3.82-0.23-5.54,0.05c0.34,3.85,1.03,7.54,1.102,11.86
			c-0.2,0.35-0.49,0.68-0.9,1.1c-0.28,0.291-0.94,0.672-0.94,1.092c-0.01,0.43,0.512,0.68,0.892,1.05c0.3,0.29,0.8,0.78,0.898,1.101
			c0.15,0.471,0.03,1.471,0,1.989c-0.02,0.38-0.09,0.7-0.1,1.101c-0.06,2.851-0.86,5.869-0.9,8.771c1.69,0.12,3.722,0.12,5.392-0.05
			c0.34-1.29,0.54-2.83,0.74-4.141c0.09-0.541,0.01-1.181,0.35-1.591c0.65,0.38,0.96,1.11,1.55,1.54
			C124.365,44.296,124.775,43.796,124.845,43.516z M123.095,26.676c-0.37-0.06-0.33,0.3-0.65,0.3c-0.38-0.51,0.01-1.8-0.5-2.2
			c-0.13,0.71,0.12,1.85,0.25,2.8C122.665,27.446,122.845,27.026,123.095,26.676z M121.705,34.796c0.07-0.28,0.07-0.81,0-1.09
			c-1.03-0.33-2.21-0.75-3.29-0.851c-0.04,0.011-0.06,0.039-0.05,0.101c0.17,0.351,0.65,0.16,0.79,0.601
			c0.09,0.271-0.021,0.659-0.05,1.039c-0.19,0.16-0.51,0.19-0.69,0.352c-0.04,0.279-0.148,0.729,0,0.898
			C119.625,35.616,120.605,35.146,121.705,34.796z M121.305,39.136c1.42-1.34-0.45-3.25-2.2-2.438
			c-0.892,0.408-1.222,1.789-0.69,2.64c0.38,0.24,0.91,0.58,1.392,0.55c0.078-0.289,0.229-0.99,0.05-1.35
			c-0.04-0.01-0.102,0-0.102-0.051c-0.658,0.291-1.028,0.359-1.14-0.449c0.37-0.62,1.57-0.352,2.39-0.352
			C121.205,38.116,121.525,38.566,121.305,39.136z M121.455,41.525c0.05-0.279,0.09-0.569,0.102-0.899
			c-1.722-0.181-3.86-0.11-3.49,1.851c0.12,0.681,1.108,0.51,1.84,0.551c0.53,0.02,1.25,0.229,1.4-0.2
			c-0.61-0.49-2.722,0.37-2.842-0.55C118.305,41.116,120.665,42.016,121.455,41.525z M121.005,32.156c0.972-0.19,0.61-2.08,0.4-2.99
			c-1.05-0.11-2.21-0.08-3.29,0c-0.06,0.24-0.03,0.729,0.15,0.9c0.398,0.029,0.988-0.131,1.04,0.25
			c-0.392,0.51-1.46,0.68-0.99,1.738c0.6-0.029,0.7-0.56,1.29-0.6C119.915,31.826,120.405,32.275,121.005,32.156z M120.705,28.566
			c0.98-0.24,0.562-1.92,0.352-2.84c-0.932-0.19-2.352-0.11-3.24,0.05c-0.08,0.13-0.08,0.52,0,0.65c0.188,0.18,0.66,0.06,0.89,0.2
			C118.935,27.636,119.435,28.886,120.705,28.566z M120.805,46.166c0.22-0.561,0.35-1.471,0.3-2.15c-1-0.108-2.24-0.039-3.24,0
			c-0.07,0.57-0.37,1.42-0.15,1.95c0.302-0.35,0.012-0.899,0.45-1.1c0.312-0.142,0.88,0,1.19,0.2c0.04,0.26-0.26,0.6,0.05,0.699
			c0.44-0.011,0.17-0.729,0.45-0.899c0.229-0.03,0.85-0.062,0.95,0.2C120.845,45.536,120.555,45.836,120.805,46.166z
			 M120.805,24.626c0.79-1.16-0.812-3.01-1.7-2.04c-0.37,0.41-0.182,1.26-0.74,1.3c-0.68,0.04-0.52-0.95-0.45-1.35
			c-0.88,0.03-0.52,1.47-0.25,1.9c0.53,0.35,1.37,0.76,1.84,0.15c0.32-0.42,0.11-1.15,0.65-1.15
			C120.805,23.436,120.425,24.366,120.805,24.626z"/>
		<path d="M121.005,30.116c0.762,1.01-1.52,1.399-1.25,0.1C119.945,29.966,120.675,30.057,121.005,30.116z"/>
		<path d="M120.705,26.626c0.16,0.18,0.13,0.7,0,0.9c-0.6,0.35-1.49,0-1.398-0.8C119.545,26.476,120.325,26.566,120.705,26.626z"/>
		<path d="M119.655,33.656c0.37-0.102,1.02-0.07,1,0.39c-0.25,0.19-0.51,0.36-0.95,0.351
			C119.585,34.275,119.565,33.836,119.655,33.656z"/>
		<path d="M112.825,34.796c0.18,0.31,0,0.95,0,1.45c0,0.35,0.16,0.811-0.34,0.75c-0.18-0.37,0.11-0.9-0.05-1.25
			c-0.57-0.189-0.512,0.43-0.7,0.699c-0.3-0.061-0.14-0.279-0.102-0.5c-0.59-0.721-1.31,0.221-0.948,0.949
			c-0.12,0.012-0.19,0.07-0.352,0.051c-0.028-0.579,0.021-1.521,0-2C111.125,34.836,112.085,34.666,112.825,34.796z"/>
		<path d="M112.825,33.807c0.05,0.199-0.13,0.189-0.2,0.289c-0.75-0.24-1.42-0.56-2.24-0.74c-0.068-0.158-0.05-0.42-0.05-0.648
			c0.24-0.26,0.69-0.311,1.05-0.45c-0.068-0.45-0.6-0.409-1.05-0.35c-0.479-1.46,1.392-1.302,2.2-1.79
			c0.21,0.16,0.13,0.63,0.14,0.988c-0.198,0.25-0.81,0.08-0.89,0.451c0.17,0.329,0.79,0.209,0.99,0.5
			c0.33,0.84-0.66,0.76-1.04,1.049C111.945,33.486,112.565,33.466,112.825,33.807z"/>
		<path d="M112.725,37.536c0.1,0.75,0.06,1.79-0.102,2.45c-0.18,0.1-0.318-0.012-0.49-0.051c-0.038-0.291,0.062-0.439,0.15-0.601
			c-0.5-0.37-1.3,0.09-2.05-0.05c-0.16-0.36-0.021-0.7,0-1c0.49-0.221,1.39,0.09,2-0.102
			C112.525,38.096,112.195,37.386,112.725,37.536z"/>
		<path d="M107.695,34.646c0.95-0.119,1.71,0.5,1.688,1.449c0,0.41-0.229,1.141-0.59,1.391c-0.58,0.421-1.88,0.221-2.198-0.25
			c-0.2-0.301-0.44-0.971-0.4-1.34C106.285,35.216,106.815,34.756,107.695,34.646z M106.945,36.646c0.75-0.16,2.35,0.351,2-0.851
			c-0.51-0.19-1.46-0.101-2.05-0.05C106.665,35.996,106.665,36.477,106.945,36.646z"/>
		<path d="M109.095,31.406c0.17,0.609,0.13,1.43,0.148,2.199c-0.33,0.24-0.41,0.391-0.75,0.399c-0.36,0-0.67-0.37-1-0.351
			c-0.38,0.011-0.47,0.341-0.85,0.439c-0.36-0.02-0.34-0.619-0.25-0.939c0.238-0.26,0.778-0.221,0.95-0.551
			c-0.062-0.318-0.73-0.028-0.95-0.199c-0.182-0.239-0.15-0.979,0.148-1.051C107.365,31.516,108.315,31.286,109.095,31.406z
			 M108.795,32.855c0.03-0.16-0.04-0.229-0.05-0.351c-0.25-0.09-0.729-0.09-0.75,0.2C107.985,33.016,108.615,33.025,108.795,32.855z
			"/>
		<path d="M108.995,28.716c0.17,0.67,0.36,1.86,0.05,2.29c-0.438,0.09-0.31-0.39-0.398-0.64c-0.771,0-1.53,0-2.3,0
			c-0.19-0.19-0.302-0.671-0.19-1c0.72-0.22,1.7,0.01,2.34-0.1C108.545,28.976,108.555,28.466,108.995,28.716z"/>
		<path d="M109.145,38.436c-0.021,0.381-0.012,0.791-0.15,1.051c-0.72,0.119-1.34,0.029-2.148,0.051
			c-0.2,0.229-0.052,0.8-0.302,0.99c-0.77-0.131-0.21-1.49-0.3-1.99c0.01-0.04,0.05-0.051,0.05-0.102
			C107.185,38.396,108.235,38.426,109.145,38.436z"/>
		<path d="M109.045,40.426c0.012,0.4-0.01,0.76-0.1,1.051c-0.36,0.26-0.96,0.271-1.15,0.699c0.34,0.32,1.472,0.381,0.95,1.102
			c-0.51-0.221-1.03-0.41-1.398-0.75c-0.44-0.12-0.87,0.02-1.342-0.102c-0.068-0.369-0.068-0.79,0.15-1.05
			C107.565,41.536,108.065,40.546,109.045,40.426z"/>
		<path d="M109.195,27.626c-0.062,0.34-0.26,0.54-0.5,0.69c-0.18,0.03-0.13-0.17-0.3-0.15c-0.062-0.22,0.148-0.68,0.05-0.94
			c-0.32-0.35-1.53-0.23-2-0.1c-0.3,0.68,0.72,0.86,0.35,1.44c-0.71-0.08-0.76-0.83-0.988-1.39c0.148-1.33,1.75-1.73,2.738-0.9
			C108.845,26.636,108.975,27.176,109.195,27.626z"/>
		<path fill="#FFFFFF" d="M108.745,32.506c0.01,0.12,0.08,0.189,0.05,0.35c-0.18,0.172-0.81,0.16-0.8-0.148
			C108.015,32.416,108.495,32.416,108.745,32.506z"/>
		<path d="M108.695,43.916c0.14,0.76-0.05,1.6-0.4,2.1c-0.31,0.03-0.238-0.33-0.35-0.5c-0.69-0.08-1.562,0-2.24-0.05
			c-0.29-0.28-0.04-0.72,0.05-1.05c0.63-0.3,1.54,0.21,2.24-0.05C108.305,44.246,108.245,43.626,108.695,43.916z"/>
		<path d="M108.045,23.036c0.71,0.27,0.58,1.64,0.65,2.39c-0.14,0.06-0.312,0.06-0.45,0c-0.2-0.35,0.021-1.33-0.648-1.04
			c-0.12,0.18,0.14,0.64-0.102,0.79c-0.41,0.03-0.49-0.27-0.45-0.69c-0.12-0.26-0.71-0.25-0.938-0.1
			c-0.01,0.39,0.229,0.73,0.09,1.09c-1.07,0.1-0.41-1.45-0.79-2.14C106.225,22.966,107.245,23.466,108.045,23.036z"/>
		<path d="M108.395,46.706c0.13,0.399-0.07,0.81-0.3,1c-0.86,0.101-1.682-0.08-2.592,0c-0.148-0.19-0.34-0.431-0.3-0.7
			C105.325,46.246,107.585,46.676,108.395,46.706z"/>
		<path d="M105.805,48.506c1.13-0.609,2.71,0.4,2.34,1.641c-0.13,0.439-0.74,1.33-1.15,0.801c-0.01-0.57,0.62-0.73,0.45-1.29
			c-0.62,0.09-1.45-0.15-2.04,0.14c-0.11,0.35,0.29,1.15-0.2,1.301C104.165,50.286,105.065,48.896,105.805,48.506z"/>
		<path d="M107.895,20.646c0.14,0.26,0.358,0.69,0.2,1.09c-0.602,0.12-1.41,0.02-2.092,0.05c-0.238,0.25-0.188,0.75-0.25,1.05
			c-0.6,0.17-0.42-0.59-0.55-1.25c-0.06-0.31-0.25-0.71,0-1.04C105.985,20.736,107.025,20.476,107.895,20.646z"/>
		<path d="M107.545,18.056c0.07,0.69,0.37,1.3,0.352,2.09c-0.13,0-0.271,0-0.4,0c-0.17-0.23-0.2-0.6-0.2-1
			c-0.06-0.12-0.27-0.09-0.398-0.15c-0.32,0.14-0.12,0.65-0.15,0.85c-0.49,0.18-0.438-0.58-0.64-0.85
			c-0.37-0.01-0.722-0.01-0.9,0.15c0.08,0.29,0.24,0.75,0.15,1.05c-0.16,0.03-0.23-0.03-0.352-0.05c-0.34-0.52-0.05-1.37-0.448-1.8
			c0.02-0.16,0.148-0.22,0.198-0.34C105.795,17.946,106.555,17.856,107.545,18.056z"/>
		<path d="M103.065,33.756c0.21,0.82,0.14,2.189-0.062,3.04c-0.18,0.011-0.318-0.01-0.438-0.05c-0.08-0.42-0.142-1.23,0.1-1.5
			c-0.24-0.09-0.76-0.07-1,0c-0.1,0.25,0.01,0.71-0.148,0.898c-0.17,0.102-0.312,0.19-0.552,0.102c-0.158-0.189-0.08-0.62-0.1-0.95
			c-0.22-0.2-0.77-0.06-1.14-0.101c-0.15,0.41,0.04,1.141-0.102,1.551c-0.14,0.08-0.56,0.08-0.7,0c-0.02-0.801,0.012-1.939,0-2.891
			C99.985,33.586,101.695,33.836,103.065,33.756z"/>
		<path d="M103.065,37.586c0.05,1.05-1.29,1.1-1.7,1.85c0.32,0.4,1.12-0.199,1.54,0.15c0.1,0.1,0.04,0.359,0.05,0.55
			c-0.66,0.171-1.42,0.101-2.09,0.101c-0.75-0.01-1.54,0.171-2.14-0.149c-0.08-1.06,1.188-1.16,1.59-1.899
			c-0.312-0.261-1.05,0.021-1.392-0.101c-0.358-0.83,0.592-0.61,1.29-0.601C101.125,37.506,102.495,37.275,103.065,37.586z"/>
		<path d="M102.615,29.416c0.44-0.1,0.57,1.97,0.34,2.641c-0.188,0.601-0.858,1.149-1.54,1.25c-1.3,0.189-2.31-0.689-2.59-1.601
			c-0.2-0.62,0.04-1.32-0.1-2.09C99.685,29.286,101.515,29.656,102.615,29.416z M102.365,31.656c-0.02-0.23,0.05-0.551-0.05-0.69
			c-0.83-0.06-2.102-0.14-2.84,0.04c-0.052,0.2-0.012,0.38,0.05,0.6C100.225,31.855,101.475,31.686,102.365,31.656z"/>
		<path d="M102.615,27.816c0.17,0.13,0.27,0.48,0.15,0.75c-1.29-0.01-2.562,0.05-3.99,0.05c-0.75-1.05,1-1.4,1.29-2.19
			c-0.521-0.34-1.91,0.39-1.79-0.65c1.17-0.24,2.88-0.12,4.188-0.15c0.53,1.06-1.02,1.38-1.398,2.15
			C101.425,28.016,102.065,27.726,102.615,27.816z"/>
		<path d="M102.765,42.025c0.1,0.561-0.092,2.051-0.95,1.391c-0.021-0.43,0.358-0.46,0.3-0.939c-0.97-0.121-0.78,1.229-1.6,1.489
			c-0.271,0.091-0.562-0.01-0.99,0.05c-0.45-0.3-1.01-0.64-1.05-1.39c-0.04-0.729,0.528-1.851,1.198-1.3
			c-0.05,0.449-0.46,0.55-0.398,1.1c0.75,0.51,0.83-0.51,1.14-0.85c0.23-0.24,0.7-0.58,1.05-0.602
			C102.085,40.945,102.685,41.596,102.765,42.025z"/>
		<path d="M99.275,20.896c1.56-0.34,3.09,0.98,2.938,2.64c-0.108,1.24-1.278,1.75-2.198,1.64c-1.04-0.12-2.28-1.13-2.19-2.64
			C97.875,21.836,98.495,21.066,99.275,20.896z M101.465,23.586c0.142-0.35-0.02-0.8-0.1-1.1c-0.75-0.11-1.71-0.02-2.54-0.05
			c-0.31,0.22-0.11,0.98,0,1.25C99.735,23.676,100.685,23.716,101.465,23.586z"/>
		<path d="M102.415,44.666c-0.01,0.9-0.09,2.13-0.398,2.891c-0.17-0.011-0.41,0.039-0.5-0.051c-0.062-0.439,0.068-0.85,0.1-1.29
			c-0.6-0.39-1.17,0.181-1,0.74c-0.16,0.14-0.54,0.21-0.79,0.101c-0.04-0.301,0.08-0.451,0.04-0.74c-0.17-0.391-0.78-0.199-1.04,0
			c-0.05,0.431-0.02,0.939-0.25,1.189c-0.17,0.08-0.45,0.15-0.65,0.051c-0.068-0.859,0.07-2.011,0.352-2.841
			C99.555,44.596,101.045,44.616,102.415,44.666z"/>
		<path d="M99.125,51.445c-0.648-0.271-1.12,0.511-1.85,0.5c-0.021-0.069-0.07-0.119-0.15-0.149c0.09-0.521,0.09-1.11,0.4-1.399
			c0.49-0.109,0.89-0.311,1.25-0.551c-0.11-0.31-0.82-0.09-1.102-0.09c-0.29-0.39-0.108-1,0.052-1.4
			c1.22-0.148,2.75-0.06,4.188-0.049c-0.108,1.409-0.12,3.479-1.55,3.641c-0.22,0.02-0.49-0.141-0.74-0.15 M101.015,50.396
			c0.04-0.189,0.09-0.381,0.1-0.601c-0.39-0.14-1.17-0.16-1.44,0.101c0.012,0.16-0.04,0.369,0.052,0.449
			C100.185,50.386,100.625,50.546,101.015,50.396z"/>
		<path d="M100.665,17.306c0.76,0.62,1.34,1.97,0.65,3.09c-0.37,0.03-0.42-0.24-0.602-0.4c0.07-0.51,0.2-1.18-0.05-1.6
			c-0.85,0.02-2.01-0.18-2.64,0.2c-0.12,0.87,0.53,0.97,0.55,1.7c-0.5,0.7-1.42-0.8-1.5-1.4c-0.15-1.16,0.87-2.28,2.1-2.24
			C99.695,16.676,100.295,16.996,100.665,17.306z"/>
	</g>
</g>
</svg>
