<?xml version="1.0" encoding="utf-8"?>
<!-- Generator: Adobe Illustrator 13.0.0, SVG Export Plug-In . SVG Version: 6.00 Build 14948)  -->
<!DOCTYPE svg PUBLIC "-//W3C//DTD SVG 1.1//EN" "http://www.w3.org/Graphics/SVG/1.1/DTD/svg11.dtd">
<svg version="1.1" id="Layer_1" xmlns="http://www.w3.org/2000/svg" xmlns:xlink="http://www.w3.org/1999/xlink" x="0px" y="0px"
	 width="485.99px" height="472.996px" viewBox="0 0 485.99 472.996" enable-background="new 0 0 485.99 472.996"
	 xml:space="preserve">
<path fill="#151515" d="M42.981,448.849c0,11.45-9.285,20.74-20.74,20.74l0,0c-11.453,0.002-20.74-9.288-20.74-20.74V98.619
	c0-11.456,9.287-20.742,20.74-20.742l0,0c11.455,0,20.74,9.286,20.74,20.741V448.849z"/>
<path fill="#151515" d="M387.541,448.849c0,11.45-9.285,20.74-20.741,20.74l0,0c-11.452,0-20.739-9.29-20.739-20.74v-190.68
	c0-11.454,9.287-20.739,20.739-20.739l0,0c11.456,0,20.741,9.285,20.741,20.739V448.849z"/>
<path fill="#151515" d="M22.363,469.992c-11.454,0-20.742-9.288-20.742-20.74l0,0c0-11.455,9.288-20.739,20.742-20.739h343.966
	c11.451,0,20.738,9.284,20.738,20.739l0,0c0,11.452-9.287,20.74-20.738,20.74H22.363z"/>
<path fill="#151515" d="M22.443,119.286c-11.453,0-20.741-9.287-20.741-20.741l0,0c0-11.453,9.289-20.74,20.741-20.74h223.271
	c11.456,0,20.74,9.288,20.74,20.74l0,0c0,11.455-9.284,20.741-20.74,20.741H22.443z"/>
<polygon fill="#151515" points="268.519,275.773 209.525,216.757 389.11,37.156 448.119,96.166 "/>
<path fill="#151515" d="M456.38,87.907l18.365-18.367c5.413-5.411,21.737-21.737-7.768-51.241l0,0
	c-29.501-29.501-45.828-13.178-51.236-7.768l-18.373,18.368"/>
<path fill="#151515" d="M201.83,224.45l-18.367,18.369c-5.411,5.408-14.45,45.486-20.817,71.677l8.142,8.142
	c26.08-6.492,66.267-15.393,71.673-20.803l18.366-18.37"/>
</svg>
