<?xml version="1.0" encoding="utf-8"?>
<!-- Generator: Adobe Illustrator 13.0.0, SVG Export Plug-In . SVG Version: 6.00 Build 14948)  -->
<!DOCTYPE svg PUBLIC "-//W3C//DTD SVG 1.1//EN" "http://www.w3.org/Graphics/SVG/1.1/DTD/svg11.dtd">
<svg version="1.1" id="Layer_1" xmlns="http://www.w3.org/2000/svg" xmlns:xlink="http://www.w3.org/1999/xlink" x="0px" y="0px"
	 width="133.41px" height="55.941px" viewBox="0 0 133.41 55.941" enable-background="new 0 0 133.41 55.941" xml:space="preserve">
<g>
	<path fill="none" stroke="#000000" d="M35.644,22.786c-0.435,1.5-0.945,2.512-0.14,3.925l9.207,16.582
		c0.767,1.338,2.835,2.229,4.636,1.982l43.117-5.887c2.188-0.302,2.187-1.888,2.41-3.274"/>
	<path fill="none" stroke="#000000" stroke-width="2" d="M85.573,15.937c-0.75-1.271-2.923-2.086-4.849-1.819L38.884,19.91
		c-1.925,0.266-2.876,1.513-2.125,2.784l9.195,15.544c0.752,1.271,2.922,2.085,4.848,1.818l41.841-5.791
		c1.926-0.269,2.875-1.517,2.123-2.785L85.573,15.937z"/>
	<path fill="none" stroke="#000000" stroke-width="2" d="M44.319,21.893c0.713,1.207-0.189,2.39-2.015,2.642
		c-1.827,0.253-3.887-0.52-4.6-1.726s0.189-2.391,2.016-2.644C41.547,19.914,43.605,20.687,44.319,21.893z"/>
	<path fill="none" stroke="#000000" stroke-width="2" d="M93.759,31.154c0.714,1.204-0.188,2.389-2.017,2.641
		c-1.824,0.254-3.885-0.521-4.6-1.726c-0.716-1.206,0.188-2.388,2.017-2.644C90.986,29.174,93.046,29.946,93.759,31.154z"/>
	<path d="M48.778,21.389c-0.107,0.016-0.212,0.003-0.317-0.036c-0.104-0.04-0.178-0.096-0.22-0.164l0.008-0.195
		c0.047-0.058,0.124-0.095,0.231-0.11l3.586-0.494c0.107-0.017,0.212-0.005,0.315,0.032c0.104,0.039,0.177,0.095,0.219,0.164
		l-0.006,0.196c-0.046,0.059-0.123,0.097-0.23,0.111l-1.363,0.188l1.78,3.008l-0.01,0.221c-0.051,0.066-0.135,0.107-0.253,0.126
		c-0.122,0.017-0.24,0.002-0.355-0.042c-0.116-0.045-0.197-0.106-0.242-0.185l-1.78-3.01L48.778,21.389z"/>
	<path d="M55.838,23.332c0.063-0.083,0.168-0.136,0.313-0.156c0.142-0.02,0.285-0.001,0.431,0.054
		c0.145,0.055,0.246,0.13,0.303,0.227c0.056,0.093,0.05,0.182-0.013,0.267c-0.064,0.084-0.167,0.135-0.308,0.152
		c-0.146,0.021-0.292,0.004-0.437-0.05c-0.145-0.056-0.246-0.13-0.301-0.223C55.771,23.504,55.773,23.415,55.838,23.332z"/>
	<path d="M58.48,20.086c-0.174,0.1-0.301,0.224-0.384,0.37c-0.083,0.149-0.118,0.319-0.104,0.513
		c0.015,0.192,0.087,0.398,0.219,0.621c0.131,0.224,0.294,0.415,0.493,0.583c0.199,0.167,0.415,0.306,0.649,0.41
		c0.234,0.107,0.479,0.182,0.733,0.218c0.255,0.041,0.504,0.043,0.746,0.012c0.214-0.03,0.389-0.078,0.527-0.145
		c0.137-0.064,0.245-0.143,0.325-0.229s0.133-0.183,0.157-0.28c0.027-0.099,0.035-0.196,0.027-0.292l0.072-0.159l0.209-0.073
		c0.11-0.017,0.229-0.006,0.355,0.028c0.127,0.035,0.214,0.095,0.265,0.185c0.042,0.067,0.057,0.175,0.045,0.315
		c-0.01,0.141-0.072,0.286-0.181,0.439c-0.11,0.148-0.284,0.294-0.524,0.428c-0.238,0.134-0.564,0.229-0.978,0.287
		c-0.437,0.06-0.854,0.059-1.245-0.005c-0.393-0.063-0.751-0.171-1.076-0.325c-0.325-0.154-0.61-0.34-0.86-0.562
		c-0.248-0.222-0.448-0.459-0.601-0.716c-0.148-0.253-0.24-0.506-0.272-0.76c-0.03-0.252,0.008-0.484,0.117-0.695
		c0.11-0.211,0.295-0.394,0.56-0.549c0.263-0.154,0.613-0.262,1.05-0.323c0.334-0.046,0.67-0.047,1.003-0.003
		c0.334,0.044,0.639,0.11,0.913,0.198c0.277,0.089,0.512,0.191,0.704,0.307c0.192,0.116,0.316,0.224,0.373,0.318l-0.025,0.225
		c-0.067,0.063-0.158,0.104-0.268,0.118l-0.257-0.009l-0.235-0.116c-0.096-0.084-0.21-0.164-0.338-0.237
		c-0.13-0.077-0.276-0.144-0.439-0.195c-0.163-0.054-0.339-0.091-0.528-0.112c-0.188-0.021-0.389-0.017-0.603,0.015
		C58.86,19.92,58.653,19.987,58.48,20.086z"/>
	<path d="M64.65,22.112c0.065-0.084,0.17-0.135,0.316-0.156c0.14-0.021,0.281-0.002,0.427,0.052
		c0.146,0.057,0.247,0.132,0.303,0.228c0.057,0.093,0.052,0.182-0.012,0.266c-0.062,0.083-0.166,0.135-0.307,0.154
		c-0.146,0.02-0.291,0.002-0.437-0.053c-0.145-0.056-0.245-0.128-0.301-0.223C64.583,22.283,64.587,22.194,64.65,22.112z"/>
	<path d="M73.366,20.82c0.065-0.084,0.17-0.135,0.316-0.156c0.14-0.021,0.281-0.002,0.428,0.052
		c0.146,0.057,0.247,0.132,0.303,0.228c0.057,0.093,0.052,0.182-0.012,0.266c-0.062,0.083-0.166,0.135-0.308,0.154
		c-0.146,0.02-0.291,0.002-0.438-0.053c-0.145-0.056-0.245-0.128-0.301-0.223C73.3,20.99,73.304,20.902,73.366,20.82z"/>
	<path d="M67.293,18.865c-0.176,0.099-0.303,0.222-0.386,0.371c-0.084,0.147-0.117,0.32-0.104,0.512
		c0.015,0.193,0.088,0.399,0.218,0.621c0.131,0.222,0.295,0.416,0.495,0.583c0.198,0.167,0.414,0.304,0.647,0.411
		c0.231,0.104,0.479,0.178,0.731,0.219c0.256,0.039,0.504,0.042,0.748,0.008c0.213-0.027,0.391-0.079,0.524-0.143
		c0.14-0.067,0.245-0.142,0.324-0.23c0.081-0.088,0.133-0.18,0.157-0.278c0.025-0.1,0.033-0.197,0.023-0.293l0.072-0.157l0.21-0.074
		c0.11-0.015,0.229-0.005,0.354,0.029c0.127,0.034,0.215,0.096,0.268,0.182c0.041,0.071,0.056,0.177,0.043,0.317
		c-0.01,0.14-0.071,0.288-0.182,0.438c-0.108,0.152-0.285,0.294-0.522,0.431c-0.237,0.133-0.563,0.228-0.978,0.286
		c-0.438,0.062-0.854,0.06-1.246-0.007c-0.393-0.062-0.75-0.172-1.074-0.322c-0.324-0.153-0.609-0.342-0.86-0.562
		c-0.246-0.221-0.448-0.459-0.601-0.717c-0.148-0.253-0.24-0.505-0.27-0.759c-0.034-0.252,0.005-0.484,0.115-0.695
		c0.108-0.211,0.294-0.395,0.56-0.549c0.261-0.154,0.612-0.263,1.048-0.323c0.338-0.046,0.67-0.047,1.004-0.003
		c0.332,0.043,0.637,0.11,0.914,0.199c0.274,0.088,0.51,0.189,0.701,0.307c0.19,0.117,0.314,0.223,0.375,0.317l-0.026,0.226
		c-0.067,0.063-0.158,0.104-0.271,0.118l-0.257-0.009c-0.091-0.019-0.167-0.055-0.233-0.116c-0.099-0.083-0.211-0.163-0.34-0.239
		c-0.129-0.074-0.275-0.142-0.438-0.192c-0.163-0.057-0.34-0.091-0.529-0.112c-0.188-0.021-0.387-0.017-0.603,0.012
		C67.673,18.701,67.465,18.766,67.293,18.865z"/>
	<path d="M52.195,27.166c-0.107,0.017-0.214,0.001-0.319-0.037c-0.104-0.04-0.176-0.094-0.219-0.164l0.008-0.192
		c0.046-0.061,0.123-0.098,0.231-0.109l3.586-0.498c0.107-0.014,0.212-0.003,0.315,0.034c0.104,0.038,0.177,0.092,0.218,0.163
		l-0.005,0.196c-0.046,0.061-0.123,0.098-0.229,0.112l-1.363,0.188l1.78,3.006l-0.01,0.217c-0.052,0.067-0.136,0.109-0.253,0.125
		c-0.121,0.02-0.24,0.004-0.355-0.04c-0.116-0.046-0.197-0.104-0.243-0.183l-1.778-3.007L52.195,27.166z"/>
	<path d="M61.269,27.732l0.783,1.323l-0.01,0.218c-0.051,0.067-0.139,0.108-0.26,0.127c-0.115,0.017-0.233,0.002-0.353-0.041
		c-0.117-0.046-0.199-0.106-0.247-0.186l-0.782-1.32l-2.958-1.533l-0.151-0.136l0.007-0.197c0.047-0.056,0.122-0.091,0.225-0.105
		l0.188,0.002l0.188,0.062l2.649,1.372l0.755-1.843l0.095-0.102l0.156-0.05l0.125-0.004l0.149,0.023l0.144,0.063l0.11,0.113
		l0.019,0.153L61.269,27.732z"/>
	<path d="M66.389,28.456l-0.006,0.216c-0.051,0.066-0.135,0.11-0.256,0.129c-0.117,0.017-0.234,0.004-0.353-0.044
		c-0.117-0.044-0.2-0.104-0.246-0.183l-1.855-3.137c-0.061-0.104-0.058-0.198,0.011-0.287c0.068-0.09,0.182-0.146,0.344-0.168
		l2.091-0.289c0.229-0.033,0.459-0.034,0.69-0.005c0.232,0.026,0.453,0.082,0.662,0.161c0.211,0.08,0.396,0.177,0.559,0.298
		c0.162,0.12,0.289,0.256,0.38,0.406c0.089,0.149,0.132,0.298,0.12,0.44c-0.006,0.145-0.057,0.274-0.147,0.396
		c-0.09,0.119-0.218,0.223-0.384,0.307c-0.167,0.083-0.365,0.14-0.594,0.173l-1.806,0.249L66.389,28.456z M64.61,25.447l0.688,1.165
		l1.711-0.236c0.121-0.018,0.228-0.049,0.317-0.094l0.205-0.164l0.08-0.212l-0.062-0.234l-0.203-0.218
		c-0.09-0.062-0.188-0.117-0.302-0.159c-0.11-0.042-0.229-0.068-0.353-0.086c-0.124-0.016-0.249-0.016-0.37,0.002L64.61,25.447z"/>
	<path d="M72.161,27.963l-0.229,0.002l-0.226-0.049l-0.203-0.102l-0.146-0.152l-1.799-3.042c-0.062-0.103-0.059-0.2,0.01-0.289
		s0.183-0.144,0.345-0.167l3.302-0.458c0.105-0.014,0.213-0.003,0.312,0.036c0.101,0.038,0.173,0.092,0.216,0.162L73.741,24.1
		c-0.044,0.061-0.122,0.097-0.228,0.11l-3.021,0.418l0.616,1.044l2.838-0.393c0.105-0.016,0.213-0.001,0.312,0.037
		c0.104,0.04,0.174,0.095,0.217,0.165l-0.006,0.189c-0.041,0.062-0.117,0.1-0.226,0.111l-2.837,0.396l0.729,1.233l3.082-0.425
		c0.102-0.014,0.202-0.001,0.309,0.039c0.104,0.039,0.18,0.094,0.222,0.166l-0.007,0.192c-0.049,0.059-0.122,0.096-0.225,0.108
		L72.161,27.963z"/>
	<path d="M82.829,22.5c0.058-0.089,0.169-0.146,0.34-0.17c0.147-0.02,0.299-0.003,0.444,0.051c0.145,0.057,0.244,0.13,0.303,0.229
		l1.887,3.19l-0.005,0.195c-0.047,0.062-0.123,0.098-0.229,0.113c-0.105,0.015-0.213,0.002-0.312-0.038
		c-0.104-0.038-0.176-0.096-0.218-0.165l-1.459-2.471l0.021,2.645l-0.088,0.231c-0.059,0.062-0.156,0.103-0.293,0.122
		c-0.136,0.02-0.264,0.009-0.384-0.029c-0.121-0.04-0.229-0.097-0.328-0.173l-2.866-2.25l1.459,2.471L81.1,26.646
		c-0.043,0.059-0.117,0.097-0.228,0.112c-0.104,0.015-0.212,0-0.315-0.036c-0.105-0.04-0.179-0.097-0.221-0.167l-1.888-3.191
		c-0.056-0.096-0.052-0.186,0.009-0.271c0.064-0.084,0.172-0.136,0.322-0.155c0.171-0.023,0.326-0.005,0.472,0.057
		c0.144,0.062,0.278,0.142,0.403,0.238l3.104,2.424l-0.013-2.852C82.748,22.691,82.775,22.589,82.829,22.5z"/>
	<path d="M87.335,25.221c0.062-0.082,0.166-0.137,0.313-0.155c0.14-0.021,0.283-0.002,0.429,0.053
		c0.146,0.054,0.247,0.13,0.303,0.228c0.058,0.094,0.052,0.182-0.013,0.264c-0.062,0.084-0.167,0.136-0.305,0.154
		c-0.146,0.021-0.295,0.004-0.439-0.052c-0.145-0.054-0.245-0.128-0.299-0.222C87.268,25.395,87.271,25.305,87.335,25.221z"/>
	<path d="M62.769,31.526c0.054-0.09,0.167-0.146,0.336-0.17c0.15-0.021,0.299-0.003,0.443,0.051c0.146,0.054,0.248,0.13,0.305,0.227
		l1.888,3.192l-0.008,0.194c-0.045,0.062-0.12,0.097-0.228,0.11c-0.108,0.017-0.212,0.003-0.315-0.034
		c-0.102-0.04-0.174-0.098-0.216-0.165l-1.459-2.472l0.024,2.645l-0.089,0.229c-0.059,0.065-0.156,0.106-0.292,0.124
		c-0.135,0.021-0.264,0.011-0.384-0.025c-0.121-0.041-0.229-0.101-0.328-0.176l-2.869-2.249l1.462,2.471l-0.004,0.192
		c-0.044,0.062-0.119,0.101-0.225,0.114c-0.107,0.014-0.213,0.002-0.317-0.038c-0.105-0.039-0.178-0.094-0.22-0.165l-1.888-3.189
		c-0.057-0.098-0.053-0.188,0.009-0.271c0.065-0.081,0.172-0.133,0.323-0.154c0.17-0.021,0.327-0.005,0.471,0.057
		s0.279,0.143,0.405,0.237l3.105,2.427l-0.014-2.853C62.684,31.716,62.712,31.616,62.769,31.526z"/>
	<path d="M68.346,34.431l-0.005,0.217c-0.051,0.066-0.137,0.109-0.256,0.128c-0.118,0.016-0.233,0.001-0.354-0.043
		c-0.114-0.045-0.197-0.104-0.244-0.185l-1.907-3.229l0.007-0.218c0.053-0.067,0.139-0.108,0.255-0.125
		c0.119-0.018,0.238-0.003,0.354,0.039c0.114,0.045,0.195,0.104,0.243,0.187L68.346,34.431z"/>
	<path d="M70.094,30.974c-0.172,0.099-0.301,0.223-0.385,0.371c-0.082,0.146-0.117,0.317-0.104,0.512
		c0.015,0.19,0.088,0.398,0.218,0.62c0.134,0.222,0.296,0.416,0.495,0.581c0.197,0.17,0.416,0.305,0.646,0.409
		c0.236,0.106,0.479,0.182,0.734,0.223c0.255,0.039,0.504,0.042,0.745,0.008c0.216-0.03,0.391-0.077,0.527-0.144
		c0.139-0.065,0.244-0.145,0.325-0.229c0.079-0.088,0.134-0.181,0.157-0.28c0.023-0.099,0.031-0.194,0.021-0.293l0.073-0.158
		l0.208-0.071c0.11-0.02,0.232-0.005,0.355,0.026c0.128,0.036,0.217,0.097,0.268,0.186c0.042,0.067,0.057,0.175,0.046,0.314
		c-0.013,0.143-0.073,0.286-0.184,0.438c-0.111,0.152-0.283,0.295-0.522,0.429c-0.24,0.134-0.564,0.23-0.979,0.288
		c-0.438,0.062-0.854,0.061-1.247-0.007c-0.392-0.063-0.749-0.17-1.074-0.324c-0.323-0.151-0.608-0.341-0.86-0.56
		c-0.246-0.224-0.447-0.461-0.599-0.718c-0.149-0.257-0.241-0.509-0.274-0.76c-0.027-0.253,0.008-0.484,0.119-0.693
		c0.107-0.212,0.295-0.396,0.561-0.551c0.262-0.152,0.611-0.263,1.051-0.32c0.335-0.047,0.669-0.047,1.002-0.005
		c0.336,0.045,0.641,0.11,0.913,0.196c0.278,0.092,0.515,0.192,0.703,0.309c0.192,0.116,0.315,0.222,0.376,0.317l-0.023,0.227
		c-0.068,0.062-0.158,0.103-0.271,0.117l-0.26-0.01l-0.233-0.114c-0.097-0.084-0.211-0.164-0.338-0.239
		c-0.132-0.076-0.275-0.144-0.438-0.194c-0.16-0.055-0.338-0.091-0.525-0.11c-0.188-0.021-0.391-0.019-0.604,0.013
		C70.475,30.81,70.268,30.876,70.094,30.974z"/>
	<path d="M76.757,29.488c0.14,0.043,0.265,0.108,0.378,0.198l3.667,2.854l0.109,0.116l0.032,0.099l-0.012,0.115l-0.093,0.104
		l-0.203,0.062c-0.104,0.014-0.206,0.007-0.319-0.022c-0.112-0.029-0.207-0.073-0.285-0.139L79.01,32.03l-2.103,0.29l0.104,1.028
		L76.93,33.5c-0.062,0.042-0.14,0.07-0.229,0.081c-0.132,0.019-0.259,0.006-0.392-0.039c-0.127-0.044-0.218-0.108-0.268-0.189
		l-0.029-0.098l-0.135-3.396c-0.006-0.104,0.029-0.191,0.1-0.266c0.07-0.07,0.187-0.117,0.34-0.142
		C76.473,29.434,76.619,29.446,76.757,29.488z M76.848,31.777l1.592-0.22l-1.777-1.47L76.848,31.777z"/>
	<path fill="none" stroke="#000000" stroke-width="5" d="M29.15,33.194c0.896,1.518-0.238,3.004-2.535,3.323
		c-2.297,0.317-4.887-0.654-5.785-2.172c-0.897-1.519,0.238-3.004,2.535-3.322C25.663,30.705,28.253,31.678,29.15,33.194z"/>
	<path fill="none" stroke="#000000" stroke-width="5" d="M99.455,22.47c-0.896-1.518,0.236-3.005,2.533-3.322
		c2.298-0.318,4.889,0.653,5.785,2.171c0.896,1.518-0.237,3.004-2.535,3.322C102.941,24.959,100.352,23.986,99.455,22.47z"/>
	<polygon points="41.718,34.443 30.378,36.012 27.136,30.533 38.476,28.962 	"/>
	<polygon points="101.844,25.129 92.629,26.448 89.387,20.966 98.6,19.647 	"/>
	<line fill="none" stroke="#000000" x1="95.447" y1="32.468" x2="94.605" y2="37.656"/>
	<line fill="none" stroke="#000000" x1="35.434" y1="23.486" x2="36.27" y2="20.949"/>
	<line fill="none" stroke="#000000" stroke-width="1.5" x1="47.728" y1="39.768" x2="47.429" y2="45.077"/>
	<line fill="none" stroke="#010101" stroke-width="0.35" x1="83.955" y1="10.974" x2="76.725" y2="0.555"/>
	<line fill="none" stroke="#010101" stroke-width="0.35" x1="32.114" y1="17.394" x2="24.884" y2="6.974"/>
	<polygon fill="#010101" points="76.632,0.653 74.65,1.576 72.669,2.503 71.802,1.251 70.934,0 73.784,0.325 	"/>
	<polygon fill="#010101" points="25.089,7.035 27.071,6.11 29.052,5.186 29.92,6.438 30.788,7.688 27.938,7.361 	"/>
	<path fill="#010101" d="M51.359,6.559c0.267-0.071,0.414-0.154,0.443-0.248c0.029-0.095-0.073-0.31-0.307-0.646l-2.768-3.989
		c-0.22-0.315-0.407-0.519-0.56-0.605s-0.385-0.125-0.694-0.111l-0.115-0.167l2.231-0.274l0.115,0.166
		c-0.278,0.055-0.436,0.133-0.472,0.233c-0.036,0.104,0.049,0.304,0.255,0.603l2.99,4.308c0.069,0.1,0.138,0.176,0.207,0.229
		c0.07,0.053,0.16,0.081,0.27,0.083l0.199-0.007c0.068-0.005,0.192-0.019,0.373-0.041c0.704-0.087,1.134-0.212,1.29-0.374
		c0.155-0.16,0.164-0.525,0.022-1.097l0.2-0.022L55.729,6.2l-4.254,0.527L51.359,6.559z"/>
	<line fill="none" stroke="#010101" stroke-width="0.35" x1="29.586" y1="6.479" x2="48.474" y2="4.14"/>
	<line fill="none" stroke="#010101" stroke-width="0.35" x1="55.028" y1="3.329" x2="72.033" y2="1.222"/>
	<polygon fill="#010101" points="133.398,32.938 131.784,31.329 130.173,29.716 131.339,29.473 132.504,29.23 132.949,31.083 	"/>
	<line fill="none" stroke="#010101" stroke-width="0.35" x1="133.382" y1="32.891" x2="97.65" y2="38.814"/>
	<path fill="#010101" d="M124.438,22.875c0.291-0.086,0.467-0.166,0.529-0.235c0.062-0.071,0.029-0.216-0.1-0.429l-1.498-2.521
		c-0.122-0.207-0.246-0.33-0.37-0.371c-0.127-0.04-0.347-0.035-0.665,0.015l-0.062-0.104l2.252-0.473
		c0.762-0.156,1.451-0.208,2.078-0.146c1.127,0.104,1.924,0.552,2.394,1.336c0.168,0.283,0.239,0.569,0.223,0.859
		c-0.021,0.291-0.146,0.559-0.386,0.806c-0.152,0.157-0.328,0.288-0.529,0.394c-0.361,0.197-0.855,0.36-1.479,0.49L124.5,22.98
		L124.438,22.875z M126.031,22.374c0.084,0.016,0.23,0,0.441-0.043c0.651-0.137,1.139-0.337,1.452-0.601
		c0.488-0.404,0.538-0.936,0.15-1.586c-0.347-0.582-0.872-0.963-1.578-1.146c-0.606-0.156-1.288-0.154-2.04,0.002
		c-0.188,0.04-0.311,0.081-0.355,0.122c-0.052,0.042-0.05,0.11,0.006,0.204l1.715,2.884
		C125.877,22.303,125.948,22.357,126.031,22.374z"/>
	<line fill="none" stroke="#010101" stroke-width="0.35" x1="127.854" y1="23.498" x2="131.341" y2="29.476"/>
	<polygon fill="#010101" points="120.123,9.494 121.734,11.105 120.568,11.349 119.402,11.593 118.957,9.739 118.512,7.883 	"/>
	<line fill="none" stroke="#010101" stroke-width="0.35" x1="88.23" y1="12.126" x2="118.547" y2="7.925"/>
	<line fill="none" stroke="#010101" stroke-width="0.35" x1="120.568" y1="11.345" x2="124.171" y2="17.302"/>
	<line fill="none" stroke="#010101" stroke-width="0.35" x1="93.833" y1="39.101" x2="14.708" y2="50.279"/>
	<line fill="none" stroke="#010101" stroke-width="0.35" x1="61.424" y1="38.541" x2="14.384" y2="45.248"/>
	<polygon points="13.335,55.941 14.786,50.29 16.681,55.362 	"/>
	<polygon points="15.952,39.581 14.501,45.232 12.606,40.159 	"/>
	<path d="M0,45.841l7.395-1.221l0.067,2.094L7.17,46.764c-0.146-0.62-0.334-1.018-0.562-1.183c-0.23-0.165-0.711-0.185-1.448-0.062
		l-0.714,0.122L4.73,51.52c0.021,0.398,0.101,0.627,0.244,0.691c0.141,0.066,0.442,0.065,0.904-0.001l0.007,0.188l-3.339,0.688
		L2.529,52.9c0.491-0.132,0.792-0.266,0.905-0.397c0.113-0.134,0.156-0.421,0.125-0.871L3.155,45.86l-0.734,0.125
		c-0.731,0.12-1.223,0.308-1.467,0.556c-0.246,0.248-0.395,0.718-0.451,1.402l-0.321,0.056L0,45.841z"/>
</g>
</svg>
