<?xml version="1.0" encoding="utf-8"?>
<!-- Generator: Adobe Illustrator 13.0.0, SVG Export Plug-In . SVG Version: 6.00 Build 14948)  -->
<!DOCTYPE svg PUBLIC "-//W3C//DTD SVG 1.1//EN" "http://www.w3.org/Graphics/SVG/1.1/DTD/svg11.dtd">
<svg version="1.1" xmlns="http://www.w3.org/2000/svg" xmlns:xlink="http://www.w3.org/1999/xlink" x="0px" y="0px"
	 width="56.693px" height="56.693px" viewBox="76.693 0 56.693 56.693" enable-background="new 76.693 0 56.693 56.693"
	 xml:space="preserve">
<g id="svg2" inkscape:version="0.91+devel r" xmlns:sodipodi="http://sodipodi.sourceforge.net/DTD/sodipodi-0.dtd" xmlns:dc="http://purl.org/dc/elements/1.1/" xmlns:svg="http://www.w3.org/2000/svg" sodipodi:docname="logo.svg" xmlns:rdf="http://www.w3.org/1999/02/22-rdf-syntax-ns#" xmlns:inkscape="http://www.inkscape.org/namespaces/inkscape" xmlns:cc="http://creativecommons.org/ns#">
	<defs>
		
		
			<inkscape:path-effect  sort_points="false" interpolator_type="Linear" linejoin_type="miter" start_linecap_type="zerowidth" is_visible="true" offset_points="0.0065420215,1.1661103" end_linecap_type="zerowidth" cusp_linecap_type="round" miter_limit="3.9" interpolator_beta="0" id="path-effect3442" effect="powerstroke">
			</inkscape:path-effect>
		
			<inkscape:path-effect  sort_points="false" interpolator_type="Linear" linejoin_type="miter" start_linecap_type="zerowidth" is_visible="true" offset_points="0.0065420215,0.52962204" end_linecap_type="zerowidth" cusp_linecap_type="round" miter_limit="3.9" interpolator_beta="0" id="path-effect3438" effect="powerstroke">
			</inkscape:path-effect>
		
			<inkscape:path-effect  sort_points="false" interpolator_type="Linear" linejoin_type="miter" start_linecap_type="zerowidth" is_visible="true" offset_points="0.0065420215,0.87954657" end_linecap_type="zerowidth" cusp_linecap_type="round" miter_limit="3.9" interpolator_beta="0" id="path-effect3434" effect="powerstroke">
			</inkscape:path-effect>
		
			<inkscape:path-effect  sort_points="false" interpolator_type="Linear" linejoin_type="miter" start_linecap_type="zerowidth" is_visible="true" offset_points="0.0065420215,0.69527275" end_linecap_type="zerowidth" cusp_linecap_type="round" miter_limit="3.9" interpolator_beta="0" id="path-effect3430" effect="powerstroke">
			</inkscape:path-effect>
		
			<inkscape:path-effect  sort_points="false" interpolator_type="Linear" linejoin_type="miter" start_linecap_type="zerowidth" is_visible="true" offset_points="0.0065420215,1.0858472" end_linecap_type="zerowidth" cusp_linecap_type="round" miter_limit="3.9" interpolator_beta="0" id="path-effect3426" effect="powerstroke">
			</inkscape:path-effect>
		
			<inkscape:path-effect  sort_points="false" interpolator_type="Linear" linejoin_type="miter" start_linecap_type="zerowidth" is_visible="true" offset_points="0.0065420215,0.042187863" end_linecap_type="zerowidth" cusp_linecap_type="round" miter_limit="3.9" interpolator_beta="0" id="path-effect3388" effect="powerstroke">
			</inkscape:path-effect>
		
			<inkscape:path-effect  sort_points="false" interpolator_type="Linear" linejoin_type="miter" start_linecap_type="zerowidth" is_visible="true" offset_points="0.0065420215,0.065887198" end_linecap_type="zerowidth" cusp_linecap_type="round" miter_limit="3.9" interpolator_beta="0" id="path-effect3384" effect="powerstroke">
			</inkscape:path-effect>
		
			<inkscape:path-effect  sort_points="false" interpolator_type="Linear" linejoin_type="miter" start_linecap_type="zerowidth" is_visible="true" offset_points="0.0065420215,0.053369257" end_linecap_type="zerowidth" cusp_linecap_type="round" miter_limit="3.9" interpolator_beta="0" id="path-effect3380" effect="powerstroke">
			</inkscape:path-effect>
		
			<inkscape:path-effect  sort_points="false" interpolator_type="Linear" linejoin_type="miter" start_linecap_type="zerowidth" is_visible="true" offset_points="0.0065420215,0.032136485" end_linecap_type="zerowidth" cusp_linecap_type="round" miter_limit="3.9" interpolator_beta="0" id="path-effect3376" effect="powerstroke">
			</inkscape:path-effect>
		
			<inkscape:path-effect  sort_points="false" interpolator_type="Linear" linejoin_type="miter" start_linecap_type="zerowidth" is_visible="true" offset_points="0.0065420215,0.070757411" end_linecap_type="zerowidth" cusp_linecap_type="round" miter_limit="3.9" interpolator_beta="0" id="path-effect3372" effect="powerstroke">
			</inkscape:path-effect>
		
			<inkscape:path-effect  sort_points="false" interpolator_type="Linear" linejoin_type="miter" start_linecap_type="zerowidth" is_visible="true" offset_points="0.0065420215,0.88243001" end_linecap_type="zerowidth" cusp_linecap_type="round" miter_limit="3.9" interpolator_beta="0" id="path-effect4302" effect="powerstroke">
			</inkscape:path-effect>
		
			<inkscape:path-effect  sort_points="false" interpolator_type="Linear" linejoin_type="miter" start_linecap_type="zerowidth" is_visible="true" offset_points="0.0065420215,0.71538444" end_linecap_type="zerowidth" cusp_linecap_type="round" miter_limit="3.9" interpolator_beta="0" id="path-effect4278" effect="powerstroke">
			</inkscape:path-effect>
		
			<inkscape:path-effect  sort_points="true" interpolator_type="CubicBezierJohan" linejoin_type="extrp_arc" start_linecap_type="zerowidth" is_visible="true" offset_points="0,0.13229167" end_linecap_type="zerowidth" cusp_linecap_type="round" miter_limit="4" interpolator_beta="0.2" id="path-effect4274" effect="powerstroke">
			</inkscape:path-effect>
	</defs>
	
		<sodipodi:namedview  inkscape:snap-to-guides="false" inkscape:object-paths="false" inkscape:snap-global="false" inkscape:window-width="1920" inkscape:window-height="1026" inkscape:window-x="0" inkscape:window-y="0" units="mm" inkscape:snap-smooth-nodes="true" inkscape:window-maximized="1" pagecolor="#ffffff" bordercolor="#666666" borderopacity="1.0" inkscape:pageopacity="0.0" inkscape:pageshadow="2" inkscape:zoom="0.70710678" inkscape:cx="191.48316" inkscape:cy="566.45262" inkscape:document-units="mm" inkscape:current-layer="layer1" showgrid="false" showguides="false" inkscape:guide-bbox="true" inkscape:object-nodes="true" id="base">
		<inkscape:grid  type="xygrid" id="grid4136"></inkscape:grid>
		<sodipodi:guide  orientation="1,0" position="121.21831,134.98163" id="guide4144"></sodipodi:guide>
		<sodipodi:guide  orientation="0,1" position="190.125,51.566406" id="guide4209"></sodipodi:guide>
		<sodipodi:guide  orientation="0,1" position="188.92187,89.28125" id="guide4211"></sodipodi:guide>
	</sodipodi:namedview>
	<g id="layer1" inkscape:label="Layer 1" inkscape:groupmode="layer">
		<g id="g3368" transform="translate(-1.6644996,-2.6707193)">
			<path id="use4150" inkscape:connector-curvature="0" sodipodi:nodetypes="cccccc" d="M92.019,47.695
				c-0.1-1.955,2.692-4.531,6.855-4.531h25.038l-0.049-32.983h-24.99c-4.321,0-7.162,2.789-6.828,4.765"/>
			
				<path id="path4246" inkscape:connector-curvature="0" sodipodi:nodetypes="ssccccccccccccccccccs" fill="#FFFFFF" stroke="#000000" stroke-width="1.5652" d="
				M96.057,17.756c-2.141,0-3.412-0.862-3.496-1.826c-0.174-2.002,2.308-4.592,6.48-4.522h23.763l-0.129,0.506l-0.443,0.247
				l0.014,0.438l0.1,0.506l-0.473,0.288l-0.062,0.519l-0.511,0.234l0.013,0.438l-0.187,0.396l0.1,0.506l-0.473,0.288l0.1,0.505
				l-0.187,0.397l-0.672,0.247l0.299,0.546l-0.474,0.289L96.057,17.756z"/>
			
				<path id="use4268" inkscape:connector-curvature="0" sodipodi:nodetypes="ccccccccccccccccccccccccccccccccccc" fill="#FFFFFF" stroke="#000000" stroke-width="1.5652" d="
				M122.804,42.706l-0.148,0.506l-0.424,0.247l0.014,0.438l0.1,0.505l-0.473,0.289l-0.062,0.52l-0.511,0.233l0.013,0.438
				l-0.187,0.396l0.1,0.505l-0.473,0.289l0.1,0.505l-0.187,0.396l-0.672,0.248l0.299,0.546l-0.474,0.288V17.757l0.474-0.289
				l-0.299-0.546l0.672-0.247l0.187-0.397l-0.1-0.505l0.423-0.293l-0.05-0.501l0.187-0.396l-0.013-0.438l0.511-0.234l0.062-0.519
				l0.473-0.288l-0.1-0.506l-0.014-0.438l0.447-0.247l0.125-0.506V42.706L122.804,42.706z"/>
			<path id="path4207" inkscape:connector-curvature="0" sodipodi:nodetypes="ccccccc" d="M95.729,49.853h25.038V16.869H95.729
				c-2.354-0.016-3.49-0.848-3.684-1.921l-0.027,32.74C92.074,48.878,93.198,49.837,95.729,49.853L95.729,49.853z"/>
			<g id="g3360">
				
					<path id="path4276" inkscape:transform-center-x="1.008724" inkscape:transform-center-y="0.0041361184" inkscape:connector-curvature="0" d="
					M122.272,12.303l-0.041-0.138l-6.144,0.138l6.144,0.137L122.272,12.303z"/>
				
					<path id="use4280" inkscape:transform-center-x="1.008724" inkscape:transform-center-y="0.0041361184" inkscape:connector-curvature="0" d="
					M121.81,13.91l-0.092-0.223l-13.885,0.223l13.885,0.224L121.81,13.91z"/>
				
					<path id="use4282" inkscape:transform-center-x="1.008724" inkscape:transform-center-y="0.0041361184" inkscape:connector-curvature="0" d="
					M121.165,14.836l-0.021-0.102l-2.953,0.102l2.953,0.102L121.165,14.836z"/>
				
					<path id="path4300" inkscape:transform-center-x="-0.0041359643" inkscape:transform-center-y="1.3455948" inkscape:connector-curvature="0" d="
					M122.242,13.076l-0.169,0.06c0.057,2.977,0.112,5.952,0.169,8.929l0.169-8.929C122.354,13.115,122.298,13.096,122.242,13.076z"
					/>
				
					<path id="use4310" inkscape:transform-center-x="-0.0041359643" inkscape:transform-center-y="1.4798034" inkscape:connector-curvature="0" d="
					M121.679,13.866c-0.07,0.032-0.139,0.063-0.208,0.096c0.069,4.781,0.138,9.563,0.208,14.348l0.207-14.348
					C121.816,13.93,121.747,13.899,121.679,13.866z"/>
				
					<path id="path3450" inkscape:transform-center-x="0.13457797" inkscape:transform-center-y="11.221677" inkscape:connector-curvature="0" d="
					M121.253,14.74l-0.123,0.028l0.172,4.321l0.074-4.322L121.253,14.74z"/>
			</g>
		</g>
	</g>
	<rect x="107.842" y="23.979" fill="#FFFFFF" width="8.974" height="1.239"/>
	<rect x="93.118" y="23.979" fill="#FFFFFF" width="8.974" height="1.239"/>
	<rect x="106.634" y="17.307" fill="#FFFFFF" width="1.24" height="14.679"/>
	<rect x="102.061" y="17.308" fill="#FFFFFF" width="1.239" height="14.678"/>
	<rect x="42.221" y="27.599" fill="none" width="17.378" height="8.999"/>
	<text transform="matrix(1 0 0 1 42.2214 33.4333)"><tspan x="0" y="0" fill="#FFFFFF" font-family="'TimesNewRomanPS-BoldMT'" font-size="8.8">C</tspan><tspan x="6.355" y="0" fill="#FFFFFF" font-family="'TimesNewRomanPS-BoldMT'" font-size="8.8">V</tspan><tspan x="13.591" y="-5" fill="#FFFFFF" font-family="'TimesNewRomanPS-BoldMT'" font-size="5.6">2</tspan></text>
</g>
<g id="Layer_1">
	<path fill="#FFFFFF" d="M97.911,34.739c0-0.109,0-0.119-0.105-0.119c-0.287,0.298-0.694,0.298-0.842,0.298v0.14
		c0.093,0,0.366,0,0.605-0.12v2.39c0,0.167-0.014,0.223-0.432,0.223h-0.146v0.144c0.16-0.017,0.563-0.017,0.748-0.017
		s0.585,0,0.745,0.017V37.55h-0.146c-0.414,0-0.428-0.052-0.428-0.223V34.739"/>
	
		<line fill="#FFFFFF" stroke="#FFFFFF" stroke-width="0.25" stroke-miterlimit="10" x1="96.557" y1="39.655" x2="98.862" y2="39.655"/>
	<path fill="#FFFFFF" d="M97.137,43.613l0.489-0.475c0.722-0.636,0.998-0.886,0.998-1.347c0-0.523-0.416-0.892-0.978-0.892
		c-0.522,0-0.864,0.423-0.864,0.834c0,0.256,0.232,0.256,0.246,0.256c0.079,0,0.239-0.055,0.239-0.242
		c0-0.12-0.082-0.239-0.243-0.239c-0.037,0-0.048,0-0.062,0.003c0.106-0.301,0.356-0.473,0.623-0.473
		c0.42,0,0.618,0.377,0.618,0.753c0,0.369-0.232,0.735-0.485,1.019l-0.886,0.987c-0.051,0.052-0.051,0.062-0.051,0.172h1.712
		l0.13-0.804H98.51c-0.024,0.141-0.055,0.342-0.103,0.41c-0.03,0.037-0.335,0.037-0.438,0.037H97.137"/>
	<path fill="#FFFFFF" d="M105.071,37.463c0-0.019-0.015-0.063-0.069-0.063c-0.019,0-0.027,0.009-0.096,0.072l-0.43,0.477
		c-0.055-0.088-0.339-0.549-1.024-0.549c-1.376,0-2.762,1.361-2.762,2.793c0,1.02,0.727,1.691,1.669,1.691
		c0.539,0,1.006-0.247,1.335-0.53c0.571-0.508,0.677-1.069,0.677-1.088c0-0.06-0.06-0.06-0.073-0.06
		c-0.036,0-0.068,0.014-0.082,0.06c-0.055,0.183-0.196,0.617-0.622,0.974c-0.426,0.348-0.813,0.452-1.134,0.452
		c-0.553,0-1.207-0.319-1.207-1.284c0-0.348,0.128-1.349,0.745-2.071c0.375-0.438,0.955-0.745,1.504-0.745
		c0.632,0,0.992,0.476,0.992,1.188c0,0.247-0.018,0.257-0.018,0.315c0,0.064,0.068,0.064,0.091,0.064
		c0.082,0,0.082-0.014,0.114-0.123L105.071,37.463"/>
	<path fill="#FFFFFF" d="M109.098,38.24c0.302-0.484,0.558-0.503,0.786-0.513c0.073-0.009,0.082-0.113,0.082-0.118
		c0-0.051-0.031-0.073-0.082-0.073c-0.16,0-0.338,0.019-0.503,0.019c-0.206,0-0.416-0.019-0.612-0.019c-0.037,0-0.119,0-0.119,0.119
		c0,0.063,0.06,0.072,0.101,0.072c0.164,0.01,0.283,0.074,0.283,0.201c0,0.092-0.091,0.229-0.091,0.233l-1.894,3.013l-0.42-3.264
		c0-0.105,0.142-0.184,0.425-0.184c0.087,0,0.155,0,0.155-0.123c0-0.055-0.05-0.068-0.087-0.068c-0.246,0-0.512,0.019-0.763,0.019
		c-0.115,0-0.229-0.005-0.339-0.005c-0.114,0-0.229-0.014-0.333-0.014c-0.046,0-0.12,0-0.12,0.119c0,0.072,0.056,0.072,0.156,0.072
		c0.343,0,0.352,0.056,0.37,0.211l0.484,3.804c0.019,0.124,0.046,0.142,0.124,0.142c0.101,0,0.123-0.031,0.174-0.114L109.098,38.24"
		/>
	<path fill="#FFFFFF" d="M112.358,38.423h-0.146c-0.014,0.097-0.055,0.348-0.109,0.394c-0.037,0.022-0.366,0.022-0.426,0.022h-0.795
		c0.452-0.397,0.604-0.521,0.863-0.722c0.316-0.252,0.613-0.522,0.613-0.929c0-0.521-0.458-0.842-1.006-0.842
		c-0.535,0-0.896,0.376-0.896,0.773c0,0.22,0.188,0.242,0.229,0.242c0.105,0,0.229-0.077,0.229-0.229
		c0-0.078-0.031-0.229-0.256-0.229c0.138-0.307,0.431-0.402,0.632-0.402c0.429,0,0.653,0.338,0.653,0.686
		c0,0.375-0.266,0.672-0.406,0.828l-1.034,1.023c-0.046,0.036-0.046,0.046-0.046,0.165h1.774L112.358,38.423"/>
</g>
</svg>
