<?xml version="1.0" encoding="utf-8"?>
<!-- Generator: Adobe Illustrator 13.0.0, SVG Export Plug-In . SVG Version: 6.00 Build 14948)  -->
<!DOCTYPE svg PUBLIC "-//W3C//DTD SVG 1.1//EN" "http://www.w3.org/Graphics/SVG/1.1/DTD/svg11.dtd">
<svg version="1.1" id="Layer_1" xmlns="http://www.w3.org/2000/svg" xmlns:xlink="http://www.w3.org/1999/xlink" x="0px" y="0px"
	 width="56.693px" height="56.693px" viewBox="76.693 0 56.693 56.693" enable-background="new 76.693 0 56.693 56.693"
	 xml:space="preserve">
<g id="svg2" inkscape:version="0.91+devel r" xmlns:sodipodi="http://sodipodi.sourceforge.net/DTD/sodipodi-0.dtd" xmlns:dc="http://purl.org/dc/elements/1.1/" xmlns:svg="http://www.w3.org/2000/svg" sodipodi:docname="logo.svg" xmlns:rdf="http://www.w3.org/1999/02/22-rdf-syntax-ns#" xmlns:inkscape="http://www.inkscape.org/namespaces/inkscape" xmlns:cc="http://creativecommons.org/ns#">
	<defs>
		
		
			<inkscape:path-effect  sort_points="false" interpolator_type="Linear" linejoin_type="miter" start_linecap_type="zerowidth" is_visible="true" offset_points="0.0065420215,1.1661103" end_linecap_type="zerowidth" cusp_linecap_type="round" miter_limit="3.9" interpolator_beta="0" id="path-effect3442" effect="powerstroke">
			</inkscape:path-effect>
		
			<inkscape:path-effect  sort_points="false" interpolator_type="Linear" linejoin_type="miter" start_linecap_type="zerowidth" is_visible="true" offset_points="0.0065420215,0.52962204" end_linecap_type="zerowidth" cusp_linecap_type="round" miter_limit="3.9" interpolator_beta="0" id="path-effect3438" effect="powerstroke">
			</inkscape:path-effect>
		
			<inkscape:path-effect  sort_points="false" interpolator_type="Linear" linejoin_type="miter" start_linecap_type="zerowidth" is_visible="true" offset_points="0.0065420215,0.87954657" end_linecap_type="zerowidth" cusp_linecap_type="round" miter_limit="3.9" interpolator_beta="0" id="path-effect3434" effect="powerstroke">
			</inkscape:path-effect>
		
			<inkscape:path-effect  sort_points="false" interpolator_type="Linear" linejoin_type="miter" start_linecap_type="zerowidth" is_visible="true" offset_points="0.0065420215,0.69527275" end_linecap_type="zerowidth" cusp_linecap_type="round" miter_limit="3.9" interpolator_beta="0" id="path-effect3430" effect="powerstroke">
			</inkscape:path-effect>
		
			<inkscape:path-effect  sort_points="false" interpolator_type="Linear" linejoin_type="miter" start_linecap_type="zerowidth" is_visible="true" offset_points="0.0065420215,1.0858472" end_linecap_type="zerowidth" cusp_linecap_type="round" miter_limit="3.9" interpolator_beta="0" id="path-effect3426" effect="powerstroke">
			</inkscape:path-effect>
		
			<inkscape:path-effect  sort_points="false" interpolator_type="Linear" linejoin_type="miter" start_linecap_type="zerowidth" is_visible="true" offset_points="0.0065420215,0.042187863" end_linecap_type="zerowidth" cusp_linecap_type="round" miter_limit="3.9" interpolator_beta="0" id="path-effect3388" effect="powerstroke">
			</inkscape:path-effect>
		
			<inkscape:path-effect  sort_points="false" interpolator_type="Linear" linejoin_type="miter" start_linecap_type="zerowidth" is_visible="true" offset_points="0.0065420215,0.065887198" end_linecap_type="zerowidth" cusp_linecap_type="round" miter_limit="3.9" interpolator_beta="0" id="path-effect3384" effect="powerstroke">
			</inkscape:path-effect>
		
			<inkscape:path-effect  sort_points="false" interpolator_type="Linear" linejoin_type="miter" start_linecap_type="zerowidth" is_visible="true" offset_points="0.0065420215,0.053369257" end_linecap_type="zerowidth" cusp_linecap_type="round" miter_limit="3.9" interpolator_beta="0" id="path-effect3380" effect="powerstroke">
			</inkscape:path-effect>
		
			<inkscape:path-effect  sort_points="false" interpolator_type="Linear" linejoin_type="miter" start_linecap_type="zerowidth" is_visible="true" offset_points="0.0065420215,0.032136485" end_linecap_type="zerowidth" cusp_linecap_type="round" miter_limit="3.9" interpolator_beta="0" id="path-effect3376" effect="powerstroke">
			</inkscape:path-effect>
		
			<inkscape:path-effect  sort_points="false" interpolator_type="Linear" linejoin_type="miter" start_linecap_type="zerowidth" is_visible="true" offset_points="0.0065420215,0.070757411" end_linecap_type="zerowidth" cusp_linecap_type="round" miter_limit="3.9" interpolator_beta="0" id="path-effect3372" effect="powerstroke">
			</inkscape:path-effect>
		
			<inkscape:path-effect  sort_points="false" interpolator_type="Linear" linejoin_type="miter" start_linecap_type="zerowidth" is_visible="true" offset_points="0.0065420215,0.88243001" end_linecap_type="zerowidth" cusp_linecap_type="round" miter_limit="3.9" interpolator_beta="0" id="path-effect4302" effect="powerstroke">
			</inkscape:path-effect>
		
			<inkscape:path-effect  sort_points="false" interpolator_type="Linear" linejoin_type="miter" start_linecap_type="zerowidth" is_visible="true" offset_points="0.0065420215,0.71538444" end_linecap_type="zerowidth" cusp_linecap_type="round" miter_limit="3.9" interpolator_beta="0" id="path-effect4278" effect="powerstroke">
			</inkscape:path-effect>
		
			<inkscape:path-effect  sort_points="true" interpolator_type="CubicBezierJohan" linejoin_type="extrp_arc" start_linecap_type="zerowidth" is_visible="true" offset_points="0,0.13229167" end_linecap_type="zerowidth" cusp_linecap_type="round" miter_limit="4" interpolator_beta="0.2" id="path-effect4274" effect="powerstroke">
			</inkscape:path-effect>
	</defs>
	
		<sodipodi:namedview  inkscape:snap-to-guides="false" inkscape:object-paths="false" inkscape:snap-global="false" inkscape:window-width="1920" inkscape:window-height="1026" inkscape:window-x="0" inkscape:window-y="0" units="mm" inkscape:snap-smooth-nodes="true" inkscape:window-maximized="1" pagecolor="#ffffff" bordercolor="#666666" borderopacity="1.0" inkscape:pageopacity="0.0" inkscape:pageshadow="2" inkscape:zoom="0.70710678" inkscape:cx="191.48316" inkscape:cy="566.45262" inkscape:document-units="mm" inkscape:current-layer="layer1" showgrid="false" showguides="false" inkscape:guide-bbox="true" inkscape:object-nodes="true" id="base">
		<inkscape:grid  type="xygrid" id="grid4136"></inkscape:grid>
		<sodipodi:guide  orientation="1,0" position="121.21831,134.98163" id="guide4144"></sodipodi:guide>
		<sodipodi:guide  orientation="0,1" position="190.125,51.566406" id="guide4209"></sodipodi:guide>
		<sodipodi:guide  orientation="0,1" position="188.92187,89.28125" id="guide4211"></sodipodi:guide>
	</sodipodi:namedview>
	<g id="layer1" inkscape:label="Layer 1" inkscape:groupmode="layer">
		<g id="g3368" transform="translate(-1.6644996,-2.6707193)">
			<path id="use4150" inkscape:connector-curvature="0" sodipodi:nodetypes="cccccc" d="M91.116,48.696
				c-0.105-2.066,2.845-4.788,7.243-4.788h26.456l-0.052-34.85H98.359c-4.566,0-7.567,2.947-7.215,5.035"/>
			
				<path id="path4246" inkscape:connector-curvature="0" sodipodi:nodetypes="ssccccccccccccccccccs" fill="#FFFFFF" stroke="#000000" stroke-width="1.5652" d="
				M95.383,17.062c-2.262,0-3.605-0.911-3.694-1.929c-0.184-2.115,2.439-4.852,6.848-4.779h25.107l-0.136,0.535l-0.469,0.261
				l0.016,0.463l0.105,0.534l-0.5,0.305L122.595,13l-0.54,0.248l0.014,0.462l-0.197,0.419l0.105,0.534l-0.5,0.305l0.105,0.533
				l-0.197,0.42l-0.71,0.261l0.316,0.577l-0.502,0.306L95.383,17.062z"/>
			
				<path id="use4268" inkscape:connector-curvature="0" sodipodi:nodetypes="ccccccccccccccccccccccccccccccccccc" fill="#FFFFFF" stroke="#000000" stroke-width="1.5652" d="
				M123.644,43.424l-0.155,0.535l-0.449,0.26l0.016,0.464l0.105,0.533l-0.5,0.306l-0.065,0.55l-0.54,0.245l0.014,0.464l-0.197,0.418
				l0.105,0.533l-0.5,0.306l0.105,0.533l-0.197,0.419l-0.71,0.262l0.316,0.577l-0.502,0.305v-33.07l0.502-0.306l-0.316-0.577
				l0.71-0.261l0.197-0.42l-0.105-0.534l0.447-0.309l-0.053-0.53l0.197-0.419l-0.014-0.462l0.54-0.248l0.065-0.548l0.5-0.304
				l-0.105-0.535l-0.016-0.463l0.473-0.261l0.132-0.535V43.424L123.644,43.424z"/>
			<path id="path4207" inkscape:connector-curvature="0" sodipodi:nodetypes="ccccccc" d="M95.036,50.976h26.455V16.125H95.036
				c-2.487-0.017-3.688-0.896-3.893-2.03l-0.028,34.593C91.175,49.946,92.362,50.96,95.036,50.976L95.036,50.976z"/>
			<g id="g3360">
				
					<path id="path4276" inkscape:transform-center-x="1.008724" inkscape:transform-center-y="0.0041361184" inkscape:connector-curvature="0" d="
					M123.081,11.3l-0.043-0.146l-6.491,0.146l6.491,0.145L123.081,11.3z"/>
				
					<path id="use4280" inkscape:transform-center-x="1.008724" inkscape:transform-center-y="0.0041361184" inkscape:connector-curvature="0" d="
					M122.594,12.998l-0.098-0.235l-14.671,0.235l14.671,0.238L122.594,12.998z"/>
				
					<path id="use4282" inkscape:transform-center-x="1.008724" inkscape:transform-center-y="0.0041361184" inkscape:connector-curvature="0" d="
					M121.912,13.977l-0.022-0.108l-3.12,0.108l3.12,0.107L121.912,13.977z"/>
				
					<path id="path4300" inkscape:transform-center-x="-0.0041359643" inkscape:transform-center-y="1.3455948" inkscape:connector-curvature="0" d="
					M123.051,12.117l-0.179,0.064c0.06,3.145,0.117,6.289,0.179,9.434l0.179-9.434C123.168,12.158,123.11,12.138,123.051,12.117z"/>
				
					<path id="use4310" inkscape:transform-center-x="-0.0041359643" inkscape:transform-center-y="1.4798034" inkscape:connector-curvature="0" d="
					M122.455,12.951c-0.074,0.034-0.146,0.067-0.22,0.103c0.073,5.051,0.146,10.104,0.22,15.16l0.219-15.16
					C122.6,13.02,122.528,12.986,122.455,12.951z"/>
				
					<path id="path3450" inkscape:transform-center-x="0.13457797" inkscape:transform-center-y="11.221677" inkscape:connector-curvature="0" d="
					M122.005,13.875l-0.13,0.03l0.182,4.566l0.079-4.567L122.005,13.875z"/>
			</g>
		</g>
	</g>
	<rect x="107.65" y="30.131" fill="#FFFFFF" width="9.48" height="1.309"/>
	<rect x="92.091" y="30.131" fill="#FFFFFF" width="9.481" height="1.309"/>
	<rect x="106.652" y="23.083" display="none" fill="#FFFFFF" width="1.311" height="15.507"/>
	<rect x="101.54" y="23.084" fill="#FFFFFF" width="1.309" height="15.506"/>
</g>
<path fill="none" stroke="#FFFFFF" stroke-width="1.3" d="M111.66,23.548c-6.126-0.014-6.126,14.471,0.042,14.479"/>
</svg>
