<?xml version="1.0" encoding="utf-8"?>
<!-- Generator: Adobe Illustrator 13.0.0, SVG Export Plug-In . SVG Version: 6.00 Build 14948)  -->
<!DOCTYPE svg PUBLIC "-//W3C//DTD SVG 1.1//EN" "http://www.w3.org/Graphics/SVG/1.1/DTD/svg11.dtd">
<svg version="1.1"
	 id="svg2" xmlns:cc="http://creativecommons.org/ns#" inkscape:version="0.91+devel r" xmlns:svg="http://www.w3.org/2000/svg" xmlns:dc="http://purl.org/dc/elements/1.1/" xmlns:sodipodi="http://sodipodi.sourceforge.net/DTD/sodipodi-0.dtd" xmlns:inkscape="http://www.inkscape.org/namespaces/inkscape" sodipodi:docname="logo.svg" xmlns:rdf="http://www.w3.org/1999/02/22-rdf-syntax-ns#"
	 xmlns="http://www.w3.org/2000/svg" xmlns:xlink="http://www.w3.org/1999/xlink" x="0px" y="0px" width="56.693px"
	 height="56.693px" viewBox="76.693 0 56.693 56.693" enable-background="new 0 0 56.693 56.693" xml:space="preserve">
<defs>
	
	
		<inkscape:path-effect  effect="powerstroke" id="path-effect3442" linejoin_type="miter" is_visible="true" offset_points="0.0065420215,1.1661103" sort_points="false" interpolator_type="Linear" start_linecap_type="zerowidth" end_linecap_type="zerowidth" cusp_linecap_type="round" miter_limit="3.9" interpolator_beta="0">
		</inkscape:path-effect>
	
		<inkscape:path-effect  effect="powerstroke" id="path-effect3438" linejoin_type="miter" is_visible="true" offset_points="0.0065420215,0.52962204" sort_points="false" interpolator_type="Linear" start_linecap_type="zerowidth" end_linecap_type="zerowidth" cusp_linecap_type="round" miter_limit="3.9" interpolator_beta="0">
		</inkscape:path-effect>
	
		<inkscape:path-effect  effect="powerstroke" id="path-effect3434" linejoin_type="miter" is_visible="true" offset_points="0.0065420215,0.87954657" sort_points="false" interpolator_type="Linear" start_linecap_type="zerowidth" end_linecap_type="zerowidth" cusp_linecap_type="round" miter_limit="3.9" interpolator_beta="0">
		</inkscape:path-effect>
	
		<inkscape:path-effect  effect="powerstroke" id="path-effect3430" linejoin_type="miter" is_visible="true" offset_points="0.0065420215,0.69527275" sort_points="false" interpolator_type="Linear" start_linecap_type="zerowidth" end_linecap_type="zerowidth" cusp_linecap_type="round" miter_limit="3.9" interpolator_beta="0">
		</inkscape:path-effect>
	
		<inkscape:path-effect  effect="powerstroke" id="path-effect3426" linejoin_type="miter" is_visible="true" offset_points="0.0065420215,1.0858472" sort_points="false" interpolator_type="Linear" start_linecap_type="zerowidth" end_linecap_type="zerowidth" cusp_linecap_type="round" miter_limit="3.9" interpolator_beta="0">
		</inkscape:path-effect>
	
		<inkscape:path-effect  effect="powerstroke" id="path-effect3388" linejoin_type="miter" is_visible="true" offset_points="0.0065420215,0.042187863" sort_points="false" interpolator_type="Linear" start_linecap_type="zerowidth" end_linecap_type="zerowidth" cusp_linecap_type="round" miter_limit="3.9" interpolator_beta="0">
		</inkscape:path-effect>
	
		<inkscape:path-effect  effect="powerstroke" id="path-effect3384" linejoin_type="miter" is_visible="true" offset_points="0.0065420215,0.065887198" sort_points="false" interpolator_type="Linear" start_linecap_type="zerowidth" end_linecap_type="zerowidth" cusp_linecap_type="round" miter_limit="3.9" interpolator_beta="0">
		</inkscape:path-effect>
	
		<inkscape:path-effect  effect="powerstroke" id="path-effect3380" linejoin_type="miter" is_visible="true" offset_points="0.0065420215,0.053369257" sort_points="false" interpolator_type="Linear" start_linecap_type="zerowidth" end_linecap_type="zerowidth" cusp_linecap_type="round" miter_limit="3.9" interpolator_beta="0">
		</inkscape:path-effect>
	
		<inkscape:path-effect  effect="powerstroke" id="path-effect3376" linejoin_type="miter" is_visible="true" offset_points="0.0065420215,0.032136485" sort_points="false" interpolator_type="Linear" start_linecap_type="zerowidth" end_linecap_type="zerowidth" cusp_linecap_type="round" miter_limit="3.9" interpolator_beta="0">
		</inkscape:path-effect>
	
		<inkscape:path-effect  effect="powerstroke" id="path-effect3372" linejoin_type="miter" is_visible="true" offset_points="0.0065420215,0.070757411" sort_points="false" interpolator_type="Linear" start_linecap_type="zerowidth" end_linecap_type="zerowidth" cusp_linecap_type="round" miter_limit="3.9" interpolator_beta="0">
		</inkscape:path-effect>
	
		<inkscape:path-effect  effect="powerstroke" id="path-effect4302" linejoin_type="miter" is_visible="true" offset_points="0.0065420215,0.88243001" sort_points="false" interpolator_type="Linear" start_linecap_type="zerowidth" end_linecap_type="zerowidth" cusp_linecap_type="round" miter_limit="3.9" interpolator_beta="0">
		</inkscape:path-effect>
	
		<inkscape:path-effect  effect="powerstroke" id="path-effect4278" linejoin_type="miter" is_visible="true" offset_points="0.0065420215,0.71538444" sort_points="false" interpolator_type="Linear" start_linecap_type="zerowidth" end_linecap_type="zerowidth" cusp_linecap_type="round" miter_limit="3.9" interpolator_beta="0">
		</inkscape:path-effect>
	
		<inkscape:path-effect  effect="powerstroke" id="path-effect4274" linejoin_type="extrp_arc" is_visible="true" offset_points="0,0.13229167" sort_points="true" interpolator_type="CubicBezierJohan" start_linecap_type="zerowidth" end_linecap_type="zerowidth" cusp_linecap_type="round" miter_limit="4" interpolator_beta="0.2">
		</inkscape:path-effect>
</defs>
<sodipodi:namedview  id="base" units="mm" inkscape:window-maximized="1" inkscape:snap-smooth-nodes="true" inkscape:window-y="0" inkscape:window-x="0" inkscape:window-height="1026" inkscape:window-width="1920" inkscape:snap-global="false" inkscape:object-paths="false" inkscape:snap-to-guides="false" inkscape:object-nodes="true" inkscape:guide-bbox="true" showguides="false" showgrid="false" inkscape:current-layer="layer1" inkscape:document-units="mm" inkscape:cy="566.45262" inkscape:cx="191.48316" inkscape:zoom="0.70710678" inkscape:pageshadow="2" inkscape:pageopacity="0.0" borderopacity="1.0" bordercolor="#666666" pagecolor="#ffffff">
	<inkscape:grid  id="grid4136" type="xygrid"></inkscape:grid>
	<sodipodi:guide  id="guide4144" position="121.21831,134.98163" orientation="1,0"></sodipodi:guide>
	<sodipodi:guide  id="guide4209" position="190.125,51.566406" orientation="0,1"></sodipodi:guide>
	<sodipodi:guide  id="guide4211" position="188.92187,89.28125" orientation="0,1"></sodipodi:guide>
</sodipodi:namedview>
<g id="layer1" inkscape:groupmode="layer" inkscape:label="Layer 1">
	<g id="g3368" transform="translate(-1.6644996,-2.6707193)">
		<path id="use4150" inkscape:connector-curvature="0" sodipodi:nodetypes="cccccc" d="M92.019,47.695
			c-0.1-1.955,2.692-4.531,6.855-4.531h25.038l-0.049-32.984H98.873c-4.321,0-7.162,2.789-6.828,4.765"/>
		
			<path id="path4246" inkscape:connector-curvature="0" sodipodi:nodetypes="ssccccccccccccccccccs" fill="#FFFFFF" stroke="#000000" stroke-width="1.5652" d="
			M96.057,17.756c-2.141,0-3.412-0.862-3.496-1.826c-0.174-2.002,2.307-4.592,6.48-4.522h23.763l-0.129,0.506l-0.443,0.247
			l0.013,0.438l0.1,0.506l-0.473,0.288l-0.062,0.519l-0.511,0.234l0.013,0.438l-0.187,0.396l0.1,0.506l-0.473,0.288l0.1,0.505
			l-0.187,0.397l-0.672,0.247l0.299,0.546l-0.473,0.289L96.057,17.756z"/>
		
			<path id="use4268" inkscape:connector-curvature="0" sodipodi:nodetypes="ccccccccccccccccccccccccccccccccccc" fill="#FFFFFF" stroke="#000000" stroke-width="1.5652" d="
			M122.804,42.706l-0.149,0.505l-0.423,0.248l0.013,0.438l0.1,0.505l-0.473,0.289l-0.062,0.519l-0.511,0.234l0.013,0.438
			l-0.187,0.396l0.1,0.505l-0.473,0.289l0.1,0.505l-0.187,0.396l-0.672,0.248l0.299,0.546l-0.473,0.288V17.757l0.473-0.289
			l-0.299-0.546l0.672-0.247l0.187-0.397l-0.1-0.505l0.423-0.293l-0.05-0.501l0.187-0.396l-0.013-0.438l0.511-0.234l0.062-0.519
			l0.473-0.288l-0.1-0.506l-0.013-0.438l0.447-0.247l0.125-0.506V42.706z"/>
		<path id="path4207" inkscape:connector-curvature="0" sodipodi:nodetypes="ccccccc" d="M95.729,49.853h25.038V16.869H95.729
			c-2.354-0.016-3.491-0.848-3.684-1.921l-0.027,32.74C92.074,48.877,93.198,49.837,95.729,49.853L95.729,49.853z"/>
		<g id="g3360">
			
				<path id="path4276" inkscape:transform-center-y="0.0041361184" inkscape:transform-center-x="1.008724" inkscape:connector-curvature="0" d="
				M122.272,12.303l-0.041-0.137l-6.144,0.137l6.144,0.137L122.272,12.303z"/>
			
				<path id="use4280" inkscape:transform-center-y="0.0041361184" inkscape:transform-center-x="1.008724" inkscape:connector-curvature="0" d="
				M121.81,13.91l-0.092-0.223l-13.885,0.223l13.885,0.223L121.81,13.91z"/>
			
				<path id="use4282" inkscape:transform-center-y="0.0041361184" inkscape:transform-center-x="1.008724" inkscape:connector-curvature="0" d="
				M121.165,14.836l-0.02-0.101l-2.953,0.101l2.953,0.102L121.165,14.836z"/>
			
				<path id="path4300" inkscape:transform-center-y="1.3455948" inkscape:transform-center-x="-0.0041359643" inkscape:connector-curvature="0" d="
				M122.242,13.076l-0.169,0.059c0.057,2.977,0.113,5.952,0.169,8.929l0.169-8.929C122.354,13.115,122.298,13.096,122.242,13.076z"
				/>
			
				<path id="use4310" inkscape:transform-center-y="1.4798034" inkscape:transform-center-x="-0.0041359643" inkscape:connector-curvature="0" d="
				M121.679,13.866c-0.07,0.032-0.139,0.063-0.208,0.095c0.069,4.782,0.138,9.564,0.208,14.348l0.207-14.348
				C121.816,13.93,121.747,13.899,121.679,13.866z"/>
			
				<path id="path3450" inkscape:transform-center-y="11.221677" inkscape:transform-center-x="0.13457797" inkscape:connector-curvature="0" d="
				M121.253,14.74l-0.123,0.028l0.172,4.321l0.074-4.322L121.253,14.74z"/>
		</g>
	</g>
</g>
<rect x="104.299" y="17.348" fill="#FFFFFF" width="1.239" height="10.391"/>
<rect x="97.627" y="27.738" fill="#FFFFFF" width="14.678" height="1.24"/>
<rect x="104.395" y="33.552" fill="#FFFFFF" width="1.239" height="10.391"/>
<rect x="97.628" y="32.311" fill="#FFFFFF" width="14.677" height="1.24"/>
</svg>
