<?xml version="1.0" encoding="utf-8"?>
<!-- Generator: Adobe Illustrator 13.0.0, SVG Export Plug-In . SVG Version: 6.00 Build 14948)  -->
<!DOCTYPE svg PUBLIC "-//W3C//DTD SVG 1.1//EN" "http://www.w3.org/Graphics/SVG/1.1/DTD/svg11.dtd">
<svg version="1.1" id="Layer_1" xmlns="http://www.w3.org/2000/svg" xmlns:xlink="http://www.w3.org/1999/xlink" x="0px" y="0px"
	 width="35px" height="35px" viewBox="0 0 35 35" enable-background="new 0 0 35 35" xml:space="preserve">
<g id="Page-1">
	<g id="openhand">
		<g id="bg-copy" opacity="0.01">
			<rect id="bg" x="-7.5" y="-7.5" fill="#FFFFFF" width="50" height="50"/>
		</g>
		<path id="hand" fill="#FFFFFF" d="M11.865,17.606c-0.14-0.536-0.28-1.21-0.58-2.217c-0.239-0.795-0.489-1.227-0.672-1.762
			c-0.221-0.65-0.433-1.029-0.709-1.687c-0.198-0.47-0.52-1.498-0.653-2.058C9.083,9.156,9.299,8.563,9.601,8.16
			c0.361-0.484,1.374-0.7,1.938-0.501c0.53,0.186,1.063,0.731,1.309,1.126c0.412,0.657,0.51,0.903,1.024,2.203
			c0.561,1.417,0.806,2.74,0.873,3.187l0.122,0.645c-0.001-0.057-0.062-1.603-0.063-1.659c-0.05-1.471-0.085-2.605-0.054-4.199
			c0.003-0.181,0.091-0.839,0.12-1.022c0.111-0.714,0.436-1.143,0.961-1.398c0.589-0.287,1.323-0.307,2.002-0.024
			c0.604,0.248,0.895,0.786,0.981,1.46c0.02,0.156,0.134,1.41,0.132,1.582c-0.018,1.464,0.009,2.344,0.021,3.105
			c0.006,0.33,0.006,2.321,0.025,2.098c0.086-0.937,0.134-4.556,0.49-5.631c0.207-0.619,0.579-1.066,1.135-1.327
			c0.615-0.29,1.591-0.101,2.006,0.347c0.406,0.436,0.638,0.989,0.688,1.647c0.046,0.579-0.027,1.282-0.028,1.778
			c0,1.239-0.03,1.892-0.053,3.03c-0.002,0.054-0.022,0.426,0.033,0.26c0.134-0.4,0.268-0.774,0.38-1.064
			c0.069-0.178,0.343-0.876,0.513-1.227c0.162-0.334,0.302-0.528,0.592-0.983c0.287-0.447,0.595-0.641,0.954-0.802
			c0.773-0.335,1.585,0.16,1.859,0.844c0.123,0.308,0.013,1.019-0.04,1.579c-0.087,0.924-0.362,1.866-0.502,2.355
			c-0.185,0.638-0.393,1.764-0.485,2.287c-0.104,0.562-0.335,1.974-0.514,2.6c-0.123,0.43-0.53,1.396-0.932,1.978
			c0,0-1.535,1.785-1.702,2.589c-0.168,0.804-0.112,0.81-0.146,1.378c-0.033,0.569,0.173,1.318,0.173,1.318
			s-1.146,0.149-1.763,0.049c-0.559-0.089-1.25-1.202-1.429-1.54c-0.246-0.469-0.771-0.379-0.975-0.033
			c-0.32,0.547-1.013,1.529-1.5,1.591c-0.955,0.119-2.935,0.041-4.485,0.027c0,0,0.265-1.443-0.324-1.939
			c-0.436-0.371-1.186-1.12-1.634-1.515l-1.189-1.314c-0.405-0.516-0.898-1.562-1.775-2.838c-0.497-0.72-1.467-1.548-1.834-2.254
			c-0.319-0.608-0.473-1.363-0.271-1.894c0.321-0.849,0.964-1.281,1.945-1.188c0.742,0.071,1.211,0.294,1.769,0.768
			c0.321,0.271,0.818,0.762,1.071,1.068c0.233,0.278,0.29,0.394,0.539,0.727C11.888,17.872,11.991,18.089,11.865,17.606"/>
		<path id="hand-border" fill="#FFFFFF" stroke="#000000" stroke-width="0.75" stroke-linecap="round" stroke-linejoin="round" d="
			M11.865,17.606c-0.14-0.536-0.28-1.21-0.58-2.217c-0.239-0.795-0.489-1.227-0.672-1.762c-0.221-0.65-0.433-1.029-0.709-1.687
			c-0.198-0.47-0.52-1.498-0.653-2.058C9.083,9.156,9.299,8.563,9.601,8.16c0.361-0.484,1.374-0.7,1.938-0.501
			c0.53,0.186,1.063,0.731,1.309,1.126c0.412,0.657,0.51,0.903,1.024,2.203c0.561,1.417,0.806,2.74,0.873,3.187l0.122,0.645
			c-0.001-0.057-0.062-1.603-0.063-1.659c-0.05-1.471-0.085-2.605-0.054-4.199c0.003-0.181,0.091-0.839,0.12-1.022
			c0.111-0.714,0.436-1.143,0.961-1.398c0.589-0.287,1.323-0.307,2.002-0.024c0.604,0.248,0.895,0.786,0.981,1.46
			c0.02,0.156,0.134,1.41,0.132,1.582c-0.018,1.464,0.009,2.344,0.021,3.105c0.006,0.33,0.006,2.321,0.025,2.098
			c0.086-0.937,0.134-4.556,0.49-5.631c0.207-0.619,0.579-1.066,1.135-1.327c0.615-0.29,1.591-0.101,2.006,0.347
			c0.406,0.436,0.638,0.989,0.688,1.647c0.046,0.579-0.027,1.282-0.028,1.778c0,1.239-0.03,1.892-0.053,3.03
			c-0.002,0.054-0.022,0.426,0.033,0.26c0.134-0.4,0.268-0.774,0.38-1.064c0.069-0.178,0.343-0.876,0.513-1.227
			c0.162-0.334,0.302-0.528,0.592-0.983c0.287-0.447,0.595-0.641,0.954-0.802c0.773-0.335,1.585,0.16,1.859,0.844
			c0.123,0.308,0.013,1.019-0.04,1.579c-0.087,0.924-0.362,1.866-0.502,2.355c-0.185,0.638-0.393,1.764-0.485,2.287
			c-0.104,0.562-0.335,1.974-0.514,2.6c-0.123,0.43-0.53,1.396-0.932,1.978c0,0-1.535,1.785-1.702,2.589
			c-0.168,0.804-0.112,0.81-0.146,1.378c-0.033,0.569,0.173,1.318,0.173,1.318s-1.146,0.149-1.763,0.049
			c-2.09,0.066-0.652,0.024-1.402,0.004c-1.521,0.021,0.75-0.021-1.084,0c-1.667,0-0.583,0-1.417,0.014
			c-0.962,0.016-2.935,0.041-4.485,0.027c0,0,0.265-1.443-0.324-1.939c-0.436-0.371-1.186-1.12-1.634-1.515l-1.189-1.314
			c-0.405-0.516-0.898-1.562-1.775-2.838c-0.497-0.72-1.467-1.548-1.834-2.254c-0.319-0.608-0.473-1.363-0.271-1.894
			c0.321-0.849,0.964-1.281,1.945-1.188c0.742,0.071,1.211,0.294,1.769,0.768c0.321,0.271,0.818,0.762,1.071,1.068
			c0.233,0.278,0.29,0.394,0.539,0.727C11.888,17.872,11.991,18.089,11.865,17.606"/>
	</g>
</g>
</svg>
