<?xml version="1.0" encoding="utf-8"?>
<!-- Generator: Adobe Illustrator 13.0.0, SVG Export Plug-In . SVG Version: 6.00 Build 14948)  -->
<!DOCTYPE svg PUBLIC "-//W3C//DTD SVG 1.1//EN" "http://www.w3.org/Graphics/SVG/1.1/DTD/svg11.dtd">
<svg version="1.1" id="Layer_1" xmlns="http://www.w3.org/2000/svg" xmlns:xlink="http://www.w3.org/1999/xlink" x="0px" y="0px"
	 width="212.6px" height="25.757px" viewBox="0 0 212.6 25.757" enable-background="new 0 0 212.6 25.757" xml:space="preserve">
<rect x="0" y="2.553" fill="none" width="212.6" height="23.204"/>
<g enable-background="new    ">
	<path d="M1.341,2.971c0.299,0.414,5.45,0.552,6.646,0.552c1.242,0,5.174-0.069,6.968-0.552L15,3.039
		c-0.207,0.506-0.483,0.943-0.805,1.426c-0.965,0.046-2.23,0.161-3.38,0.161c-0.598,0-1.173-0.022-1.656-0.046
		c0,3.035-0.092,6.048-0.092,8.83c0,2.346,0.046,3.955,0.092,6.484c-0.621-0.137-1.563-0.137-2.622-0.137
		c0.161-1.289,0.184-3.082,0.184-5.887c0-2.162-0.046-6.439-0.138-9.291C4.928,4.558,2.1,4.488,0.559,4.212L1.341,2.971z"/>
	<path d="M16.267,19.894c0.184-2.852,0.299-6.277,0.299-9.266v-6.07c0-0.943-0.368-1.059-1.564-1.173V2.971
		c0.644-0.046,2.276-0.161,3.748-0.552c-0.046,0.598-0.115,2.345-0.115,2.736v5.542c1.127-0.989,2.852-2.116,3.725-2.116
		c0.828,0,3.334,0.851,3.334,4.668c0,0.551-0.253,1.749-0.575,3.403l-0.483,2.461c0.414-0.023,0.828-0.068,1.242-0.092v0.736
		c-1.219,0-2.46,0.045-3.541,0.275l0.713-3.518c0.23-1.104,0.437-2.115,0.437-2.828c0-2.784-1.84-3.588-2.53-3.588
		c-1.242,0-2.414,1.495-2.438,4.094l-0.046,5.426L16.267,19.894z"/>
	<path d="M30.205,14.767c0.253,1.541,1.518,3.609,3.288,3.609c0.897,0,1.748-0.713,2.3-1.172l0.391,0.322
		c-0.92,0.988-2.299,2.367-3.564,2.367c-2.185,0-4.645-2.045-4.645-6.322c0-1.656,0.759-2.829,1.563-3.45
		c1.633-1.242,2.185-1.541,2.897-1.541c2.552,0,4.07,2.714,4.07,3.473c-0.874,0.414-1.955,0.966-3.426,1.563L30.205,14.767z
		 M32.826,12.928c1.173-0.483,1.334-0.645,1.334-0.852c0-0.713-1.449-2.253-2.713-2.253c-0.621,0-1.403,1.54-1.403,3.288
		c0,0.322,0.023,0.644,0.046,0.943L32.826,12.928z"/>
	<path d="M57.618,6.189c-1.058-1.012-3.173-1.978-4.553-1.978c-2.346,0-6.577,1.932-6.577,7.358c0,3.818,1.932,6.945,6.393,6.945
		c2.208,0,4.001-0.666,5.588-2.115l0.391,0.529c-2.138,1.953-4.369,3.104-7.818,3.104c-2.345,0-7.036-1.242-7.036-7.887
		c0-4.116,1.816-6.024,2.897-6.691c1.104-0.667,6.576-2.346,7.933-2.346c1.702,0,3.219,0.736,4.231,1.655L57.618,6.189z"/>
	<path d="M67.9,18.929c0.391,0.023,0.828,0.115,1.15,0.207v0.414c-1.242-0.07-2.276,0.068-3.219,0.207l0.069-1.771h-0.046
		c-0.69,0.92-1.633,1.908-2.645,1.908c-1.495,0-3.449-1.24-3.449-3.494c0-2.645,2.806-3.679,3.978-3.679
		c0.713,0,1.633,0.437,2.093,0.667v-1.519c0-1.679-0.483-2.299-2.023-2.736c-0.184,0.046-0.667,0.621-0.874,0.943h-0.345
		c-0.92,0-1.587,0.207-1.587,0.207c0.414-0.782,1.748-1.702,3.082-1.702c3.564,0,3.817,1.196,3.817,4.438V18.929z M64.037,18.654
		c0.689,0,1.793-1.082,1.793-2.484c0-1.311-0.575-2.76-2.046-2.76c-1.587,0-1.955,1.68-1.955,2.645
		C61.83,17.755,63.302,18.654,64.037,18.654z"/>
	<path d="M70.156,9.248c0.759-0.046,2.185-0.207,3.242-0.482l-0.069,1.679l0.046,0.046c0.828-0.943,1.863-1.909,3.127-1.909
		c0.46,0,3.472,0.276,3.472,4.369c0,2.874-1.173,4.668-1.702,5.106c-1.127,0.941-2.897,1.838-3.334,1.838
		c-0.459,0-1.172-0.643-1.725-1.148c-0.138,1.701-0.207,3.426-0.23,5.104c-0.689,0.07-1.402,0.186-2.138,0.322
		c0.322-2.438,0.575-7.564,0.575-11.221c0-1.219-0.023-2.3-0.138-3.035l-1.127-0.253V9.248z M75.192,9.961
		c-0.552,0-1.702,0.713-1.702,3.15v2.138c0,2.115,0.621,2.92,2.299,3.541c0.759-0.551,2.116-1.908,2.116-5.518
		C77.905,10.467,75.95,10.053,75.192,9.961z"/>
	<path d="M89.174,18.929c0.391,0.023,0.828,0.115,1.15,0.207v0.414c-1.242-0.07-2.276,0.068-3.219,0.207l0.069-1.771h-0.046
		c-0.69,0.92-1.633,1.908-2.645,1.908c-1.495,0-3.449-1.24-3.449-3.494c0-2.645,2.806-3.679,3.978-3.679
		c0.713,0,1.633,0.437,2.093,0.667v-1.519c0-1.679-0.483-2.299-2.023-2.736c-0.184,0.046-0.667,0.621-0.874,0.943h-0.345
		c-0.92,0-1.587,0.207-1.587,0.207c0.414-0.782,1.748-1.702,3.082-1.702c3.564,0,3.817,1.196,3.817,4.438V18.929z M85.311,18.654
		c0.689,0,1.793-1.082,1.793-2.484c0-1.311-0.575-2.76-2.046-2.76c-1.587,0-1.955,1.68-1.955,2.645
		C83.104,17.755,84.575,18.654,85.311,18.654z"/>
	<path d="M99.57,18.355c-0.966,0.734-2.782,1.539-3.748,1.539c-0.759-0.092-3.518-1.127-4.001-6.414
		c0-1.311,0.736-3.013,1.402-3.542c0.552-0.437,2.806-1.356,3.426-1.356c1.426,0,2.53,1.104,3.266,1.932l-1.633,0.828
		c-0.667-0.736-1.955-1.518-2.829-1.518c-0.828,0-1.425,1.54-1.425,3.15c0,1.838,1.219,5.403,3.472,5.403
		c0.575,0,1.449-0.367,2.069-0.805V18.355z"/>
	<path d="M100.814,8.903c0.69-0.115,2.415-0.184,3.288-0.322l-0.276,8.209c-0.023,0.438-0.069,0.896-0.069,1.334
		c0,0.391,0.092,0.689,0.276,0.689c0.207,0,0.736-0.115,1.081-0.184v0.621c-1.035,0.252-2.989,0.643-3.127,0.643
		c-0.276,0-0.391-0.184-0.391-0.734c0-0.76,0.069-1.473,0.092-2.186l0.138-5.127c0.023-0.598,0.023-1.356,0.023-1.748
		c0-0.437-0.322-0.552-0.69-0.552h-0.529L100.814,8.903z M101.55,6.259c0.207-0.437,0.391-1.104,0.506-1.725
		c0.483,0.023,0.943,0.069,1.311,0.069c0.414,0,0.713-0.046,1.173-0.069c-0.046,0.644-0.23,1.725-1.035,1.725H101.55z"/>
	<path d="M106.149,9.961l0.782-1.104h0.852l0.092-3.634l2.161-0.735l-0.276,4.369c0.713,0,1.633,0,2.346-0.161l-0.528,1.173
		c-0.414,0.046-0.852,0.092-1.15,0.092h-0.644c-0.046,1.84-0.115,3.679-0.115,6.164c0,1.379,0.023,1.861,0.46,2.344l1.518-0.713
		v0.691l-2.943,1.586c-0.942-1.564-1.058-1.609-1.058-3.035c0-0.805,0.092-4.001,0.092-5.243V9.961H106.149z"/>
	<path d="M117.165,19.894c-1.334-0.068-4.139-1.586-4.139-5.426c0-2.162,0.988-3.633,1.793-4.37
		c0.782-0.713,3.013-1.518,3.933-1.518c2.299,0,3.771,2.116,3.771,5.127C122.523,18.101,118.913,19.802,117.165,19.894z
		 M118.476,18.654c0.345,0,1.242-1.15,1.472-1.68c0.276-0.621,0.368-1.541,0.368-2.346c0-4.391-2.001-4.944-2.828-4.944
		c-0.392,0-2.254,0.575-2.254,4.461C115.234,17.435,117.464,18.583,118.476,18.654z"/>
	<path d="M130.183,10.857c-0.507-0.413-0.966-0.62-1.288-0.62c-0.828,0-1.679,1.816-1.702,2.276c-0.092,1.15-0.16,3.035-0.16,3.886
		c0,1.08,0.022,2.162,0.046,3.219c-0.897,0.092-1.794,0.139-2.208,0.275c0.115-2.275,0.23-5.082,0.23-6.369
		c0-1.103-0.046-2.966-0.046-3.495c0-0.529-0.966-0.645-1.449-0.759l0.115-0.346c2.047-0.022,0.667,0,3.587-0.068
		c-0.068,0.667-0.115,1.356-0.115,2.23h0.047c0.437-1.563,1.425-2.461,2.391-2.507c0.322,0,0.966,0.207,1.334,0.667L130.183,10.857z
		"/>
	<path d="M136.255,19.757c2.806-5.381,7.543-10.67,9.98-16.373c0.851,0,1.333-0.023,2.023-0.139c0.253,1.15,1.058,2.806,1.609,3.909
		l5.266,10.6c0.3,0.576,0.621,1.197,0.759,1.703c-0.735,0.021-2,0.252-2.414,0.436l-4.093-8.208
		c-0.575,0.299-2.208,0.345-2.714,0.345h-2.966c-0.529,0-0.806,0.299-0.943,0.529l-4.277,7.198H136.255z M146.787,5.776
		c-1.563,2.345-3.013,4.897-3.013,5.266c0,0.299,0.667,0.299,1.587,0.299c1.265,0,2.92-0.069,3.817-0.345L146.787,5.776z"/>
	<path d="M162.59,10.857c-0.507-0.413-0.966-0.62-1.288-0.62c-0.828,0-1.679,1.816-1.702,2.276c-0.092,1.15-0.16,3.035-0.16,3.886
		c0,1.08,0.022,2.162,0.046,3.219c-0.897,0.092-1.794,0.139-2.208,0.275c0.115-2.275,0.23-5.082,0.23-6.369
		c0-1.103-0.046-2.966-0.046-3.495c0-0.529-0.966-0.645-1.449-0.759l0.115-0.346c2.047-0.022,0.667,0,3.587-0.068
		c-0.068,0.667-0.115,1.356-0.115,2.23h0.047c0.437-1.563,1.425-2.461,2.391-2.507c0.322,0,0.966,0.207,1.334,0.667L162.59,10.857z"
		/>
	<path d="M171.172,18.355c-0.966,0.734-2.782,1.539-3.748,1.539c-0.759-0.092-3.519-1.127-4.001-6.414
		c0-1.311,0.735-3.013,1.402-3.542c0.552-0.437,2.806-1.356,3.427-1.356c1.426,0,2.529,1.104,3.265,1.932l-1.633,0.828
		c-0.666-0.736-1.954-1.518-2.828-1.518c-0.827,0-1.426,1.54-1.426,3.15c0,1.838,1.219,5.403,3.473,5.403
		c0.575,0,1.448-0.367,2.069-0.805V18.355z"/>
	<path d="M173.036,19.894c0.184-2.852,0.299-6.277,0.299-9.266v-6.07c0-0.943-0.368-1.059-1.563-1.173V2.971
		c0.644-0.046,2.276-0.161,3.748-0.552c-0.046,0.598-0.115,2.345-0.115,2.736v5.542c1.127-0.989,2.852-2.116,3.726-2.116
		c0.827,0,3.334,0.851,3.334,4.668c0,0.551-0.253,1.749-0.575,3.403l-0.482,2.461c0.414-0.023,0.827-0.068,1.241-0.092v0.736
		c-1.219,0-2.46,0.045-3.541,0.275l0.713-3.518c0.229-1.104,0.437-2.115,0.437-2.828c0-2.784-1.839-3.588-2.529-3.588
		c-1.241,0-2.414,1.495-2.438,4.094l-0.046,5.426L173.036,19.894z"/>
	<path d="M184.766,8.903c0.689-0.115,2.414-0.184,3.288-0.322l-0.275,8.209c-0.023,0.438-0.069,0.896-0.069,1.334
		c0,0.391,0.092,0.689,0.275,0.689c0.207,0,0.736-0.115,1.081-0.184v0.621c-1.034,0.252-2.989,0.643-3.127,0.643
		c-0.276,0-0.392-0.184-0.392-0.734c0-0.76,0.069-1.473,0.093-2.186l0.138-5.127c0.022-0.598,0.022-1.356,0.022-1.748
		c0-0.437-0.321-0.552-0.689-0.552h-0.528L184.766,8.903z M185.501,6.259c0.207-0.437,0.392-1.104,0.506-1.725
		c0.483,0.023,0.943,0.069,1.312,0.069c0.413,0,0.713-0.046,1.172-0.069c-0.046,0.644-0.229,1.725-1.034,1.725H185.501z"/>
	<path d="M195.092,19.894c-1.702-3.609-3.335-7.358-5.335-10.899c0.851-0.022,1.701-0.161,2.46-0.414
		c0.874,2.736,2.53,5.518,3.519,8.301c0.966-2.275,2.575-5.404,4.231-8.301c0.46,0.345,0.942,0.529,1.38,0.713
		c-1.081,1.518-4.668,7.934-4.668,9.336c0,0.322,0.022,0.645,0.046,0.85L195.092,19.894z"/>
	<path d="M204.43,14.767c0.253,1.541,1.518,3.609,3.289,3.609c0.896,0,1.747-0.713,2.299-1.172l0.392,0.322
		c-0.92,0.988-2.3,2.367-3.564,2.367c-2.185,0-4.646-2.045-4.646-6.322c0-1.656,0.759-2.829,1.564-3.45
		c1.632-1.242,2.184-1.541,2.896-1.541c2.553,0,4.07,2.714,4.07,3.473c-0.874,0.414-1.954,0.966-3.426,1.563L204.43,14.767z
		 M207.052,12.928c1.173-0.483,1.333-0.645,1.333-0.852c0-0.713-1.448-2.253-2.713-2.253c-0.621,0-1.402,1.54-1.402,3.288
		c0,0.322,0.022,0.644,0.046,0.943L207.052,12.928z"/>
</g>
</svg>
