<?xml version="1.0" encoding="utf-8"?>
<!-- Generator: Adobe Illustrator 13.0.0, SVG Export Plug-In . SVG Version: 6.00 Build 14948)  -->
<!DOCTYPE svg PUBLIC "-//W3C//DTD SVG 1.1//EN" "http://www.w3.org/Graphics/SVG/1.1/DTD/svg11.dtd">
<svg version="1.1" id="Layer_1" xmlns="http://www.w3.org/2000/svg" xmlns:xlink="http://www.w3.org/1999/xlink" x="0px" y="0px"
	 width="212.6px" height="29.757px" viewBox="0 0 212.6 29.757" enable-background="new 0 0 212.6 29.757" xml:space="preserve">
<g enable-background="new    ">
	<path d="M1.175,6.196C1.437,6.559,5.951,6.68,6.999,6.68c1.089,0,4.535-0.06,6.106-0.483l0.038,0.06
		c-0.181,0.443-0.423,0.826-0.706,1.25c-0.846,0.041-1.953,0.141-2.962,0.141c-0.523,0-1.028-0.019-1.45-0.041
		c0,2.66-0.082,5.3-0.082,7.738c0,2.056,0.041,3.466,0.082,5.683c-0.545-0.12-1.37-0.12-2.298-0.12
		c0.141-1.13,0.161-2.701,0.161-5.158c0-1.896-0.04-5.644-0.121-8.144C4.319,7.587,1.84,7.525,0.49,7.284L1.175,6.196z"/>
	<path d="M14.255,21.027c0.162-2.5,0.263-5.501,0.263-8.121V7.587c0-0.826-0.323-0.928-1.37-1.028V6.196
		c0.564-0.041,1.994-0.141,3.284-0.484c-0.04,0.524-0.101,2.055-0.101,2.397v4.857c0.986-0.867,2.499-1.854,3.265-1.854
		c0.726,0,2.922,0.746,2.922,4.091c0,0.483-0.222,1.533-0.503,2.982l-0.424,2.156c0.363-0.021,0.726-0.059,1.089-0.08v0.645
		c-1.068,0-2.156,0.04-3.104,0.242l0.625-3.084c0.199-0.968,0.383-1.854,0.383-2.479c0-2.44-1.612-3.146-2.216-3.146
		c-1.09,0-2.116,1.31-2.138,3.588l-0.04,4.757L14.255,21.027z"/>
	<path d="M26.47,16.535c0.222,1.351,1.33,3.162,2.881,3.162c0.785,0,1.532-0.625,2.017-1.027l0.343,0.281
		c-0.807,0.865-2.016,2.074-3.122,2.074c-1.916,0-4.071-1.793-4.071-5.541c0-1.451,0.665-2.479,1.369-3.023
		c1.432-1.088,1.915-1.35,2.538-1.35c2.236,0,3.565,2.378,3.565,3.043c-0.766,0.363-1.713,0.846-3.002,1.37L26.47,16.535z
		 M28.767,14.922c1.027-0.423,1.169-0.565,1.169-0.747c0-0.625-1.27-1.975-2.379-1.975c-0.543,0-1.229,1.35-1.229,2.881
		c0,0.282,0.02,0.566,0.041,0.827L28.767,14.922z"/>
	<path d="M50.493,9.016c-0.93-0.887-2.782-1.733-3.991-1.733c-2.057,0-5.765,1.693-5.765,6.448c0,3.347,1.693,6.086,5.604,6.086
		c1.935,0,3.506-0.583,4.896-1.853l0.344,0.463c-1.874,1.711-3.828,2.721-6.852,2.721c-2.056,0-6.166-1.089-6.166-6.913
		c0-3.607,1.591-5.279,2.538-5.864c0.968-0.584,5.763-2.056,6.953-2.056c1.491,0,2.821,0.645,3.707,1.45L50.493,9.016z"/>
	<path d="M59.503,20.181c0.344,0.02,0.726,0.102,1.008,0.182v0.362c-1.088-0.062-1.994,0.06-2.82,0.181l0.061-1.551H57.71
		c-0.604,0.807-1.432,1.672-2.317,1.672c-1.311,0-3.021-1.087-3.021-3.062c0-2.317,2.459-3.223,3.485-3.223
		c0.625,0,1.433,0.383,1.835,0.584v-1.332c0-1.471-0.424-2.015-1.772-2.397c-0.161,0.04-0.584,0.544-0.767,0.826H54.85
		c-0.806,0-1.391,0.182-1.391,0.182c0.362-0.686,1.532-1.492,2.701-1.492c3.122,0,3.344,1.048,3.344,3.889L59.503,20.181
		L59.503,20.181z M56.118,19.94c0.603,0,1.57-0.948,1.57-2.177c0-1.148-0.504-2.419-1.793-2.419c-1.392,0-1.714,1.472-1.714,2.319
		C54.184,19.152,55.474,19.94,56.118,19.94z"/>
	<path d="M61.481,11.697c0.666-0.04,1.915-0.181,2.841-0.422l-0.06,1.472l0.04,0.04c0.726-0.826,1.632-1.673,2.74-1.673
		c0.402,0,3.043,0.242,3.043,3.829c0,2.52-1.028,4.09-1.491,4.475c-0.988,0.824-2.538,1.61-2.922,1.61
		c-0.402,0-1.027-0.563-1.512-1.005c-0.121,1.49-0.183,3.003-0.201,4.475c-0.604,0.061-1.229,0.162-1.874,0.28
		c0.282-2.137,0.504-6.629,0.504-9.833c0-1.068-0.021-2.016-0.122-2.66l-0.987-0.222L61.481,11.697L61.481,11.697z M65.894,12.322
		c-0.482,0-1.491,0.625-1.491,2.76v1.875c0,1.854,0.544,2.56,2.017,3.104c0.665-0.483,1.853-1.672,1.853-4.837
		C68.271,12.765,66.558,12.402,65.894,12.322z"/>
	<path d="M78.147,20.181c0.344,0.02,0.727,0.102,1.008,0.182v0.362c-1.089-0.062-1.993,0.06-2.821,0.181l0.061-1.551h-0.04
		c-0.604,0.807-1.431,1.672-2.317,1.672c-1.312,0-3.022-1.087-3.022-3.062c0-2.317,2.459-3.223,3.486-3.223
		c0.625,0,1.432,0.383,1.834,0.584v-1.332c0-1.471-0.422-2.015-1.771-2.397c-0.162,0.04-0.585,0.544-0.766,0.826h-0.304
		c-0.807,0-1.392,0.182-1.392,0.182c0.363-0.686,1.532-1.492,2.701-1.492c3.123,0,3.345,1.048,3.345,3.889L78.147,20.181
		L78.147,20.181z M74.761,19.94c0.604,0,1.571-0.948,1.571-2.177c0-1.148-0.504-2.419-1.793-2.419c-1.392,0-1.713,1.472-1.713,2.319
		C72.827,19.152,74.116,19.94,74.761,19.94z"/>
	<path d="M87.257,19.677c-0.847,0.644-2.438,1.35-3.284,1.35c-0.665-0.081-3.083-0.988-3.507-5.621c0-1.149,0.646-2.641,1.229-3.104
		c0.484-0.383,2.459-1.188,3.003-1.188c1.25,0,2.218,0.967,2.863,1.693l-1.432,0.726c-0.585-0.645-1.713-1.331-2.479-1.331
		c-0.726,0-1.249,1.35-1.249,2.761c0,1.61,1.069,4.734,3.043,4.734c0.504,0,1.271-0.32,1.812-0.705L87.257,19.677L87.257,19.677z"/>
	<path d="M88.347,11.395c0.605-0.101,2.117-0.161,2.882-0.282l-0.241,7.194c-0.02,0.384-0.061,0.784-0.061,1.169
		c0,0.343,0.081,0.604,0.242,0.604c0.182,0,0.644-0.101,0.946-0.162v0.545c-0.906,0.221-2.618,0.563-2.74,0.563
		c-0.241,0-0.343-0.162-0.343-0.644c0-0.666,0.061-1.291,0.08-1.916l0.121-4.493c0.021-0.524,0.021-1.188,0.021-1.532
		c0-0.383-0.282-0.484-0.604-0.484h-0.464L88.347,11.395z M88.992,9.078c0.182-0.383,0.343-0.968,0.442-1.512
		c0.423,0.02,0.826,0.061,1.149,0.061c0.361,0,0.625-0.041,1.027-0.061c-0.04,0.564-0.201,1.512-0.906,1.512H88.992z"/>
	<path d="M93.023,12.322l0.687-0.967h0.747l0.081-3.185l1.894-0.644l-0.242,3.829c0.625,0,1.433,0,2.057-0.141l-0.462,1.028
		c-0.362,0.04-0.747,0.081-1.008,0.081H96.21c-0.042,1.612-0.103,3.226-0.103,5.402c0,1.208,0.021,1.631,0.403,2.055l1.33-0.626
		v0.605l-2.578,1.39c-0.825-1.369-0.928-1.41-0.928-2.659c0-0.705,0.081-3.505,0.081-4.595v-1.572L93.023,12.322L93.023,12.322z"/>
	<path d="M102.676,21.027c-1.169-0.061-3.628-1.391-3.628-4.756c0-1.894,0.866-3.183,1.571-3.829
		c0.686-0.625,2.642-1.331,3.446-1.331c2.016,0,3.306,1.854,3.306,4.492C107.371,19.455,104.208,20.946,102.676,21.027z
		 M103.825,19.94c0.302,0,1.088-1.008,1.289-1.472c0.241-0.545,0.322-1.352,0.322-2.057c0-3.85-1.754-4.333-2.479-4.333
		c-0.345,0-1.977,0.504-1.977,3.909C100.984,18.873,102.939,19.876,103.825,19.94z"/>
	<path d="M114.084,13.107c-0.444-0.362-0.848-0.543-1.129-0.543c-0.727,0-1.472,1.592-1.491,1.995c-0.08,1.008-0.14,2.66-0.14,3.405
		c0,0.945,0.019,1.896,0.041,2.822c-0.786,0.08-1.572,0.121-1.937,0.238c0.101-1.992,0.201-4.453,0.201-5.58
		c0-0.967-0.04-2.6-0.04-3.063c0-0.463-0.847-0.565-1.271-0.665l0.102-0.303c1.794-0.02,0.585,0,3.144-0.06
		c-0.06,0.584-0.101,1.188-0.101,1.954h0.041c0.384-1.37,1.25-2.157,2.097-2.197c0.282,0,0.847,0.181,1.169,0.584L114.084,13.107z"
		/>
	<path d="M119.406,20.906c2.459-4.715,6.61-9.35,8.745-14.349c0.747,0,1.168-0.02,1.772-0.122c0.222,1.008,0.928,2.459,1.41,3.425
		l4.615,9.289c0.263,0.505,0.544,1.049,0.664,1.492c-0.644,0.021-1.753,0.221-2.114,0.383l-3.587-7.192
		c-0.504,0.262-1.937,0.302-2.379,0.302h-2.6c-0.464,0-0.708,0.262-0.827,0.464l-3.748,6.307L119.406,20.906L119.406,20.906z
		 M128.635,8.654c-1.369,2.055-2.641,4.292-2.641,4.615c0,0.262,0.584,0.262,1.391,0.262c1.109,0,2.559-0.061,3.345-0.302
		L128.635,8.654z"/>
	<path d="M142.484,13.107c-0.443-0.362-0.846-0.543-1.128-0.543c-0.726,0-1.472,1.592-1.492,1.995
		c-0.079,1.008-0.14,2.66-0.14,3.405c0,0.945,0.02,1.896,0.04,2.822c-0.785,0.08-1.572,0.121-1.935,0.238
		c0.101-1.992,0.2-4.453,0.2-5.58c0-0.967-0.04-2.6-0.04-3.063c0-0.463-0.847-0.565-1.271-0.665l0.102-0.303
		c1.795-0.02,0.584,0,3.144-0.06c-0.061,0.584-0.102,1.188-0.102,1.954h0.041c0.386-1.37,1.249-2.157,2.098-2.197
		c0.281,0,0.847,0.181,1.169,0.584L142.484,13.107z"/>
	<path d="M150.005,19.677c-0.847,0.644-2.438,1.35-3.285,1.35c-0.665-0.081-3.084-0.988-3.506-5.621
		c0-1.149,0.644-2.641,1.229-3.104c0.483-0.383,2.459-1.188,3.003-1.188c1.25,0,2.217,0.967,2.861,1.693l-1.431,0.726
		c-0.584-0.645-1.713-1.331-2.479-1.331c-0.725,0-1.25,1.35-1.25,2.761c0,1.61,1.068,4.734,3.044,4.734
		c0.504,0,1.27-0.32,1.813-0.705L150.005,19.677L150.005,19.677z"/>
	<path d="M151.638,21.027c0.161-2.5,0.263-5.501,0.263-8.121V7.587c0-0.826-0.322-0.928-1.37-1.028V6.196
		c0.565-0.041,1.995-0.141,3.284-0.484c-0.04,0.524-0.101,2.055-0.101,2.397v4.857c0.988-0.867,2.5-1.854,3.267-1.854
		c0.726,0,2.922,0.746,2.922,4.091c0,0.483-0.222,1.533-0.504,2.982l-0.422,2.156c0.362-0.021,0.725-0.059,1.087-0.08v0.645
		c-1.067,0-2.155,0.04-3.104,0.242l0.625-3.084c0.2-0.968,0.384-1.854,0.384-2.479c0-2.44-1.611-3.146-2.216-3.146
		c-1.088,0-2.116,1.31-2.137,3.588l-0.041,4.757L151.638,21.027z"/>
	<path d="M161.918,11.395c0.604-0.101,2.115-0.161,2.881-0.282l-0.241,7.194c-0.019,0.384-0.06,0.784-0.06,1.169
		c0,0.343,0.081,0.604,0.239,0.604c0.183,0,0.646-0.101,0.947-0.162v0.545c-0.905,0.221-2.618,0.563-2.74,0.563
		c-0.24,0-0.344-0.162-0.344-0.644c0-0.666,0.062-1.291,0.082-1.916l0.121-4.493c0.02-0.524,0.02-1.188,0.02-1.532
		c0-0.383-0.281-0.484-0.604-0.484h-0.462L161.918,11.395z M162.562,9.078c0.183-0.383,0.344-0.968,0.443-1.512
		c0.424,0.02,0.826,0.061,1.149,0.061c0.361,0,0.625-0.041,1.027-0.061c-0.041,0.564-0.2,1.512-0.906,1.512H162.562z"/>
	<path d="M170.967,21.027c-1.492-3.163-2.923-6.449-4.676-9.552c0.746-0.019,1.491-0.141,2.155-0.363
		c0.767,2.398,2.218,4.836,3.084,7.274c0.848-1.993,2.257-4.735,3.707-7.274c0.403,0.302,0.826,0.464,1.211,0.625
		c-0.947,1.33-4.092,6.953-4.092,8.183c0,0.281,0.021,0.563,0.04,0.744L170.967,21.027z"/>
	<path d="M179.15,16.535c0.223,1.351,1.331,3.162,2.884,3.162c0.784,0,1.53-0.625,2.015-1.027l0.345,0.281
		c-0.808,0.865-2.017,2.074-3.124,2.074c-1.914,0-4.071-1.793-4.071-5.541c0-1.451,0.665-2.479,1.37-3.023
		c1.431-1.088,1.914-1.35,2.538-1.35c2.237,0,3.565,2.378,3.565,3.043c-0.767,0.363-1.712,0.846-3.002,1.37L179.15,16.535z
		 M181.448,14.922c1.028-0.423,1.17-0.565,1.17-0.747c0-0.625-1.271-1.975-2.379-1.975c-0.544,0-1.229,1.35-1.229,2.881
		c0,0.282,0.02,0.566,0.04,0.827L181.448,14.922z"/>
</g>
<rect x="186.486" y="-0.787" fill="none" width="32.098" height="12.926"/>
<g enable-background="new    ">
	<path fill="#00008E" d="M195.553,0.165c0.188,0.103,0.335,0.239,0.441,0.408c0.104,0.169,0.158,0.367,0.158,0.593
		c0,0.312-0.062,0.585-0.186,0.821c-0.123,0.236-0.284,0.435-0.482,0.595c-0.202,0.165-0.432,0.3-0.687,0.408
		c-0.255,0.108-0.513,0.188-0.773,0.239v0.045c0.199,0.024,0.404,0.071,0.617,0.141c0.212,0.07,0.404,0.164,0.575,0.28
		c0.182,0.12,0.33,0.275,0.444,0.465s0.173,0.416,0.173,0.676c0,0.387-0.09,0.729-0.271,1.025c-0.18,0.296-0.406,0.537-0.681,0.722
		c-0.295,0.199-0.61,0.345-0.948,0.439c-0.338,0.094-0.685,0.141-1.041,0.141h-3.561l0.082-0.339
		c0.082-0.007,0.205-0.021,0.369-0.043c0.164-0.022,0.282-0.049,0.354-0.08c0.119-0.048,0.211-0.114,0.274-0.198
		c0.062-0.084,0.107-0.186,0.136-0.306l1.223-5.289c0.007-0.034,0.014-0.067,0.019-0.1c0.006-0.032,0.008-0.066,0.008-0.1
		c0-0.072-0.016-0.134-0.043-0.188c-0.029-0.053-0.08-0.098-0.152-0.136c-0.099-0.055-0.204-0.095-0.314-0.121
		c-0.111-0.026-0.216-0.042-0.312-0.049l0.082-0.339h3.214c0.243,0,0.471,0.021,0.682,0.064
		C195.165-0.016,195.365,0.059,195.553,0.165z M194.129,6.053c0.146-0.202,0.259-0.423,0.335-0.663
		c0.075-0.24,0.112-0.477,0.112-0.71c0-0.367-0.123-0.655-0.37-0.864s-0.595-0.314-1.04-0.314c-0.217,0-0.401,0.002-0.557,0.008
		c-0.153,0.005-0.271,0.009-0.351,0.013l-0.58,2.513c-0.011,0.049-0.019,0.094-0.023,0.135c-0.005,0.042-0.008,0.081-0.008,0.119
		c0,0.178,0.091,0.307,0.272,0.386c0.182,0.079,0.414,0.118,0.694,0.118c0.347,0,0.647-0.071,0.902-0.213
		C193.775,6.438,193.978,6.263,194.129,6.053z M194.463,2.532c0.161-0.188,0.276-0.387,0.348-0.598
		c0.07-0.21,0.104-0.449,0.104-0.716c0-0.181-0.032-0.335-0.099-0.462c-0.065-0.127-0.153-0.228-0.268-0.303
		c-0.113-0.072-0.238-0.122-0.376-0.151c-0.137-0.029-0.281-0.043-0.434-0.043c-0.112,0-0.238,0.002-0.378,0.008
		c-0.14,0.005-0.257,0.009-0.353,0.013l-0.65,2.834h0.645c0.336,0,0.626-0.053,0.871-0.159S194.316,2.707,194.463,2.532z"/>
	<path fill="#00008E" d="M201.118,3.047c0,0.363-0.113,0.675-0.342,0.936c-0.229,0.261-0.56,0.468-0.994,0.622
		c-0.317,0.117-0.64,0.211-0.965,0.283c-0.324,0.072-0.686,0.132-1.079,0.18c0,0.541,0.102,0.955,0.302,1.24
		c0.199,0.286,0.493,0.429,0.881,0.429c0.342,0,0.645-0.085,0.906-0.257c0.262-0.171,0.52-0.426,0.771-0.765l0.293,0.216
		c-0.273,0.418-0.616,0.751-1.027,1.001c-0.409,0.25-0.837,0.375-1.277,0.375c-0.605,0-1.069-0.169-1.39-0.509
		c-0.319-0.339-0.479-0.82-0.479-1.444c0-0.432,0.067-0.844,0.203-1.236c0.135-0.393,0.333-0.751,0.593-1.077
		c0.253-0.319,0.564-0.576,0.932-0.771c0.368-0.195,0.774-0.293,1.221-0.293c0.493,0,0.857,0.1,1.097,0.301
		C200.999,2.479,201.118,2.735,201.118,3.047z M200.174,2.921c0-0.133-0.021-0.238-0.058-0.315s-0.086-0.134-0.144-0.172
		c-0.062-0.041-0.127-0.066-0.195-0.077c-0.067-0.011-0.139-0.016-0.211-0.016c-0.41,0-0.79,0.226-1.137,0.677
		c-0.348,0.451-0.567,1.013-0.66,1.686c0.239-0.034,0.51-0.083,0.812-0.146c0.301-0.063,0.551-0.146,0.749-0.249
		c0.283-0.147,0.496-0.335,0.635-0.566C200.105,3.513,200.174,3.239,200.174,2.921z"/>
	<path fill="#00008E" d="M202.88,7.271c-0.325,0-0.563-0.066-0.714-0.198c-0.151-0.132-0.227-0.321-0.227-0.567
		c0-0.079,0.005-0.153,0.016-0.224c0.011-0.07,0.023-0.149,0.042-0.239l0.8-3.43h-0.918l0.106-0.467h0.938l0.357-1.504h0.925
		l-0.349,1.504h1.431l-0.107,0.467h-1.418l-0.662,2.829c-0.031,0.13-0.057,0.256-0.077,0.377c-0.02,0.121-0.031,0.225-0.031,0.311
		c0,0.188,0.048,0.326,0.143,0.414c0.094,0.087,0.265,0.131,0.511,0.131c0.089,0,0.214-0.011,0.375-0.033s0.286-0.051,0.375-0.085
		l-0.087,0.375c-0.24,0.092-0.466,0.172-0.678,0.239C203.417,7.238,203.167,7.271,202.88,7.271z"/>
	<path fill="#00008E" d="M208.544,6.485h-0.036c-0.075,0.062-0.165,0.14-0.271,0.234c-0.104,0.094-0.226,0.184-0.365,0.27
		c-0.135,0.085-0.278,0.16-0.437,0.224s-0.328,0.095-0.513,0.095c-0.496,0-0.885-0.178-1.167-0.534s-0.423-0.843-0.423-1.46
		c0-0.425,0.078-0.837,0.235-1.239c0.157-0.4,0.374-0.76,0.651-1.079c0.264-0.305,0.576-0.551,0.938-0.737
		c0.363-0.187,0.735-0.28,1.119-0.28c0.242,0,0.476,0.032,0.695,0.098c0.221,0.065,0.394,0.139,0.521,0.221l0.942-0.241l0.062,0.077
		l-0.782,3.316c-0.027,0.106-0.057,0.235-0.084,0.388c-0.029,0.152-0.044,0.265-0.044,0.336c0,0.195,0.041,0.328,0.123,0.396
		c0.082,0.068,0.222,0.103,0.417,0.103c0.063,0,0.156-0.01,0.276-0.031s0.213-0.042,0.278-0.066l-0.077,0.329
		c-0.309,0.123-0.539,0.212-0.688,0.267c-0.151,0.055-0.335,0.082-0.552,0.082c-0.246,0-0.441-0.072-0.587-0.216
		C208.637,6.891,208.558,6.708,208.544,6.485z M209.283,3.236c0-0.113-0.013-0.221-0.035-0.324
		c-0.024-0.103-0.074-0.199-0.149-0.288c-0.068-0.085-0.162-0.154-0.282-0.206c-0.12-0.051-0.271-0.077-0.452-0.077
		c-0.25,0-0.492,0.083-0.729,0.247s-0.448,0.385-0.637,0.663c-0.18,0.26-0.324,0.576-0.438,0.946c-0.113,0.37-0.17,0.746-0.17,1.126
		c0,0.209,0.012,0.394,0.036,0.555c0.023,0.161,0.069,0.309,0.138,0.442c0.065,0.13,0.159,0.231,0.282,0.304
		c0.123,0.072,0.278,0.108,0.467,0.108c0.19,0,0.393-0.054,0.603-0.162c0.21-0.108,0.446-0.297,0.71-0.568L209.283,3.236z"/>
</g>
<text transform="matrix(1 0 0 1 235.4856 61.9136)" display="none" fill="#444444" enable-background="new    " font-family="'Georgia-Italic'" font-size="10.5161">Beta</text>
</svg>
