<?xml version="1.0" encoding="utf-8"?>
<!-- Generator: Adobe Illustrator 13.0.0, SVG Export Plug-In . SVG Version: 6.00 Build 14948)  -->
<!DOCTYPE svg PUBLIC "-//W3C//DTD SVG 1.1//EN" "http://www.w3.org/Graphics/SVG/1.1/DTD/svg11.dtd">
<svg version="1.1" id="Layer_1" xmlns="http://www.w3.org/2000/svg" xmlns:xlink="http://www.w3.org/1999/xlink" x="0px" y="0px"
	 width="112.133px" height="43.871px" viewBox="0 0 112.133 43.871" enable-background="new 0 0 112.133 43.871"
	 xml:space="preserve">
<path fill="none" stroke="#000000" stroke-width="2" d="M36.752,29.506c0,6.935-2.484,12.553-5.548,12.553
	c-3.066,0-5.551-5.618-5.551-12.553c0-6.931,2.484-12.549,5.551-12.549C34.268,16.957,36.752,22.575,36.752,29.506z"/>
<path fill="none" stroke="#000000" stroke-width="2" d="M88.043,16.957c3.065,0,5.551,5.618,5.551,12.549
	c0,6.935-2.485,12.553-5.551,12.553"/>
<line fill="none" stroke="#000000" stroke-width="2" x1="31.204" y1="16.957" x2="88.405" y2="16.957"/>
<line fill="none" stroke="#000000" stroke-width="2" x1="31.204" y1="42.059" x2="88.405" y2="42.059"/>
<line fill="none" stroke="#000000" stroke-width="1.5" x1="31.204" y1="29.506" x2="16.825" y2="29.506"/>
<line fill="none" stroke="#000000" stroke-width="1.5" x1="110.168" y1="29.506" x2="93.945" y2="29.506"/>
<g>
	<g id="XMLID_3_">
		<g>
			<path fill="none" d="M86.165,38.568c0.01,0.028-0.019,0.028-0.048,0.028c-14.76,0-29.519,0-44.289,0
				c-0.02,0.01-0.029,0-0.039-0.01c0-6.546,0-13.091,0-19.635c0-0.019,0-0.048,0.019-0.048c14.779,0,29.558,0,44.328,0
				c0.019,0,0.028,0.01,0.028,0.02C86.165,25.468,86.165,32.021,86.165,38.568z M85.692,29.165c0.067-0.367,0.116-0.753,0.067-1.141
				c-0.028-0.192-0.077-0.366-0.115-0.549c-0.05-0.184-0.028-0.367-0.066-0.56c-0.021-0.087-0.088-0.184-0.116-0.3
				c-0.029-0.105-0.039-0.232-0.067-0.339c-0.078-0.28-0.251-0.493-0.377-0.647c-0.038-0.038-0.05-0.088-0.087-0.137
				c-0.06-0.077-0.154-0.124-0.214-0.192c-0.124-0.153-0.241-0.328-0.377-0.454c-0.077-0.059-0.164-0.096-0.229-0.144
				c-0.155-0.114-0.281-0.252-0.417-0.367c-0.379-0.3-0.703-0.607-1.108-0.86c-0.33-0.191-0.677-0.347-1.071-0.491
				c-0.377-0.137-0.744-0.319-1.141-0.436c-0.415-0.106-0.867-0.165-1.304-0.241c-1.102-0.212-2.21-0.463-3.358-0.56
				c-0.241-0.029-0.482,0.02-0.744,0.01c-0.261,0-0.51-0.077-0.771-0.077c-2.029-0.039-3.999-0.02-6.007-0.02
				c-1.118,0-2.25-0.096-3.379-0.019c-0.54,0.039-1.069,0.01-1.601-0.009c-0.589-0.029-1.169,0-1.738,0
				c-3.959,0-8.022-0.087-11.95-0.087c-0.58,0-1.178-0.039-1.728,0c-0.647,0.048-1.323,0.387-1.902,0.676
				c-0.087,0.048-0.155,0.097-0.231,0.164c-0.126,0.117-0.251,0.221-0.376,0.319c-0.078,0.049-0.174,0.087-0.222,0.136
				c-0.077,0.067-0.125,0.183-0.212,0.262c-0.087,0.076-0.184,0.115-0.28,0.192c-0.193,0.164-0.367,0.279-0.531,0.462
				c-0.077,0.099-0.203,0.155-0.261,0.232c-0.067,0.086-0.067,0.23-0.135,0.318c-0.058,0.077-0.183,0.106-0.25,0.193
				c-0.049,0.077-0.087,0.201-0.145,0.299c-0.174,0.33-0.231,0.589-0.309,0.995c-0.048,0.221-0.164,0.443-0.203,0.646
				c-0.048,0.261-0.019,0.542-0.086,0.812c-0.049,0.25-0.136,0.491-0.164,0.743c-0.029,0.269-0.039,0.531-0.078,0.8
				c-0.039,0.28,0.039,0.531,0.048,0.83c0,0.125-0.048,0.262-0.039,0.396c0.01,0.097,0.068,0.192,0.087,0.299
				c0.048,0.213,0.087,0.416,0.135,0.627c0.02,0.116,0,0.25,0.029,0.357c0.009,0.057,0.067,0.097,0.087,0.153
				c0.058,0.175,0.077,0.358,0.193,0.494c-0.01,0.25,0.145,0.434,0.271,0.646c0.116,0.212,0.125,0.453,0.232,0.675
				c0.115,0.261,0.386,0.445,0.405,0.763c0.097,0.104,0.183,0.212,0.28,0.309c0.116,0.114,0.173,0.25,0.29,0.339
				c0.145,0.105,0.512,0.211,0.685,0.308c0.087,0.049,0.135,0.126,0.203,0.154c0.078,0.028,0.165,0.01,0.232,0.028
				c0.058,0.02,0.106,0.067,0.164,0.099c0.357,0.181,0.801,0.26,1.226,0.365c0.579,0.144,1.188,0.192,1.863,0.262
				c0.318,0.038,0.666,0,1.013,0.021c0.319,0.01,0.647,0.087,0.965,0.097c0.686,0.021,1.381,0.021,2.018,0.021
				c0.637,0,1.294-0.021,1.921,0.05c0.646,0.065,1.342,0.086,2.017,0.086c1.274-0.009,2.441,0.05,3.812,0.05
				c1.333,0,2.617-0.021,3.861,0.02c0.637,0.01,1.284-0.027,1.941-0.038c0.994-0.011,2.096,0.02,3.07,0.048
				c0.328,0.01,0.665-0.037,0.995-0.048c0.656-0.02,1.311,0.048,1.979,0.048c0.625,0,1.245,0.01,1.854,0.021
				c0.724,0.009,1.515,0.059,2.276-0.021c0.455-0.037,0.89-0.145,1.344-0.183c0.569-0.049,1.107-0.279,1.611-0.405
				c0.521-0.136,1.016-0.347,1.478-0.569c0.462-0.224,0.986-0.347,1.332-0.687c0.307-0.114,0.587-0.301,0.811-0.482
				c0.087-0.066,0.193-0.115,0.271-0.183c0.135-0.115,0.299-0.291,0.405-0.443c0.116-0.175,0.29-0.347,0.3-0.581
				c0.192-0.077,0.241-0.241,0.328-0.396c0.099-0.164,0.241-0.251,0.318-0.415c0.04-0.097,0.04-0.201,0.078-0.301
				c0.039-0.087,0.144-0.135,0.173-0.212c0.03-0.087,0-0.184,0.05-0.281c0.027-0.077,0.105-0.113,0.145-0.164
				c0.059-0.077,0.059-0.144,0.097-0.23c0.039-0.077,0.098-0.125,0.136-0.202C85.578,30.16,85.605,29.608,85.692,29.165z"/>
			<path d="M85.76,28.027c0.049,0.385,0,0.771-0.067,1.139c-0.087,0.445-0.113,0.994-0.299,1.352
				c-0.039,0.076-0.097,0.125-0.135,0.202c-0.039,0.087-0.039,0.154-0.099,0.231c-0.037,0.05-0.115,0.087-0.144,0.164
				c-0.049,0.097-0.021,0.192-0.049,0.279c-0.028,0.077-0.136,0.126-0.173,0.213c-0.04,0.099-0.04,0.204-0.078,0.302
				c-0.077,0.164-0.221,0.251-0.318,0.415c-0.087,0.154-0.137,0.318-0.328,0.396c-0.011,0.23-0.183,0.405-0.301,0.58
				c-0.106,0.153-0.271,0.328-0.405,0.443c-0.077,0.066-0.184,0.116-0.271,0.184c-0.221,0.181-0.503,0.366-0.811,0.482
				c-0.347,0.339-0.867,0.462-1.332,0.685c-0.463,0.222-0.956,0.436-1.478,0.569c-0.503,0.127-1.042,0.358-1.611,0.406
				c-0.455,0.039-0.889,0.145-1.345,0.184c-0.762,0.076-1.552,0.026-2.275,0.021c-0.608-0.011-1.228-0.021-1.854-0.021
				c-0.666,0-1.322-0.067-1.979-0.049c-0.33,0.01-0.666,0.059-0.994,0.049c-0.975-0.03-2.073-0.06-3.071-0.049
				c-0.655,0.01-1.303,0.049-1.939,0.038c-1.246-0.038-2.53-0.021-3.861-0.021c-1.371,0-2.54-0.058-3.814-0.048
				c-0.674,0-1.369-0.021-2.016-0.087c-0.627-0.067-1.284-0.05-1.921-0.05c-0.637,0-1.332,0-2.018-0.02
				c-0.318-0.011-0.646-0.087-0.965-0.098c-0.348-0.021-0.695,0.021-1.014-0.021c-0.676-0.065-1.284-0.114-1.863-0.261
				c-0.425-0.104-0.869-0.182-1.226-0.366c-0.058-0.028-0.106-0.077-0.164-0.099c-0.067-0.019-0.154,0-0.231-0.027
				c-0.068-0.028-0.116-0.105-0.203-0.154c-0.173-0.098-0.541-0.202-0.685-0.309c-0.116-0.088-0.173-0.221-0.29-0.338
				c-0.097-0.098-0.183-0.204-0.28-0.309c-0.02-0.318-0.29-0.504-0.405-0.762c-0.107-0.223-0.116-0.464-0.232-0.677
				c-0.125-0.212-0.28-0.396-0.27-0.646c-0.116-0.135-0.136-0.319-0.193-0.493c-0.02-0.06-0.078-0.098-0.087-0.154
				c-0.029-0.105-0.01-0.241-0.029-0.355c-0.048-0.215-0.086-0.416-0.135-0.628c-0.019-0.105-0.077-0.202-0.087-0.3
				c-0.01-0.135,0.039-0.27,0.039-0.396c-0.01-0.299-0.087-0.549-0.048-0.829c0.039-0.27,0.048-0.53,0.078-0.8
				c0.029-0.253,0.115-0.494,0.164-0.744c0.067-0.27,0.039-0.55,0.086-0.812c0.039-0.201,0.155-0.423,0.203-0.646
				c0.078-0.405,0.135-0.664,0.31-0.993c0.058-0.099,0.096-0.222,0.145-0.3c0.067-0.087,0.193-0.116,0.25-0.192
				c0.068-0.089,0.068-0.232,0.135-0.318c0.058-0.078,0.184-0.136,0.261-0.232c0.164-0.184,0.338-0.3,0.531-0.463
				c0.097-0.077,0.193-0.116,0.28-0.193s0.135-0.192,0.212-0.261c0.048-0.048,0.145-0.088,0.222-0.135
				c0.125-0.099,0.25-0.204,0.376-0.319c0.077-0.068,0.145-0.116,0.231-0.165c0.579-0.289,1.255-0.627,1.902-0.676
				c0.55-0.038,1.148,0,1.728,0c3.929,0,7.992,0.087,11.949,0.087c0.569,0,1.148-0.029,1.738,0c0.532,0.019,1.063,0.048,1.603,0.009
				c1.129-0.077,2.259,0.019,3.379,0.019c2.008,0,3.976-0.019,6.006,0.02c0.261,0,0.51,0.077,0.771,0.077
				c0.263,0.01,0.504-0.039,0.745-0.009c1.147,0.096,2.259,0.347,3.357,0.56c0.435,0.078,0.889,0.135,1.305,0.242
				c0.396,0.114,0.762,0.299,1.14,0.434c0.396,0.145,0.743,0.301,1.07,0.491c0.405,0.252,0.733,0.561,1.109,0.861
				c0.137,0.115,0.262,0.252,0.416,0.367c0.066,0.049,0.153,0.088,0.23,0.144c0.137,0.126,0.252,0.3,0.378,0.454
				c0.059,0.068,0.155,0.115,0.214,0.192c0.037,0.049,0.048,0.1,0.086,0.136c0.126,0.155,0.3,0.369,0.377,0.647
				c0.028,0.105,0.038,0.231,0.067,0.34c0.027,0.115,0.097,0.213,0.116,0.3c0.038,0.192,0.019,0.377,0.065,0.56
				C85.683,27.66,85.731,27.832,85.76,28.027z M83.309,31.366c0.01-0.251-0.194-0.365-0.396-0.396c-0.213-0.048-0.462,0.021-0.696,0
				c-0.318-0.038-0.53-0.221-0.752-0.395c-0.164-0.136-0.367-0.309-0.396-0.571c-0.066-0.549,0.762-0.675,1.141-0.975
				c0.29-0.231,0.503-0.618,0.541-1.092c0.039-0.442-0.136-0.811-0.377-1.09c-0.405-0.464-0.966-0.714-1.815-0.656
				c-0.366,0.02-0.868,0-1.37,0c-0.495,0-0.945,0.02-1.267,0.135c-0.56,0.203-0.772,0.888-1.023,1.419
				c-0.098,0.214-0.202,0.396-0.289,0.589c-0.098,0.203-0.155,0.425-0.252,0.666c-0.098,0.23-0.222,0.384-0.318,0.58
				c-0.099,0.191-0.164,0.405-0.279,0.627c-0.089,0.182-0.204,0.356-0.302,0.606c-0.075,0.215-0.202,0.522-0.125,0.715
				c0.154,0.386,1.109,0.356,1.486,0.182c0.521-0.25,0.462-0.992,0.822-1.388c0.213-0.222,0.724-0.368,1.129-0.183
				c0.291,0.136,0.588,0.51,0.821,0.694c0.212,0.154,0.715,0.377,0.715,0.812c0,0.471-0.821,0.695-1.323,0.82
				c-0.58,0.154-1.014,0.407-1.534,0.511c-1.218,0.262-2.232,0.503-3.417,0.687c-1.218,0.183-2.414,0.328-3.642,0.405
				c-0.626,0.049-1.235,0.136-1.862,0.183c-0.646,0.059-1.313-0.06-1.99-0.097c-0.657-0.04-1.321,0.02-1.979,0.02
				c-0.665,0-1.304-0.097-1.931-0.154c-0.627-0.05-1.245-0.164-1.854-0.23c-0.607-0.068-1.216-0.176-1.785-0.302
				c-0.271-0.058-0.56-0.152-0.861-0.174c-0.319-0.028-0.618-0.059-0.906-0.137c-1.409-0.383-2.829-0.617-4.045-1.157
				c-0.27-0.114-0.569-0.222-0.811-0.23c-0.376-0.011-0.791,0.192-1.023,0.28c-0.212,0.087-0.454,0.191-0.714,0.3
				c-0.329,0.136-1.284,0.338-1.284,0.745c-0.01,0.221,0.435,0.394,0.724,0.509c0.319,0.126,0.695,0.223,1.004,0.281
				c0.685,0.126,1.312,0.347,2.085,0.482c0.357,0.059,0.714,0.115,1.071,0.192c0.357,0.077,0.724,0.175,1.091,0.203
				c0.782,0.066,1.534,0.192,2.269,0.308c0.366,0.067,0.762,0.077,1.146,0.117c0.405,0.047,0.802,0.087,1.197,0.104
				c1.612,0.077,3.235,0.269,4.876,0.231c0.791-0.021,1.572-0.028,2.326-0.05c0.714-0.019,1.524-0.144,2.308-0.182
				c1.661-0.097,3.049-0.251,4.402-0.56c0.696-0.164,1.428-0.279,2.074-0.503c0.34-0.117,0.666-0.193,0.994-0.281
				c0.328-0.086,0.627-0.211,0.946-0.346c0.588-0.261,1.216-0.482,1.814-0.762c0.55-0.253,1.207-0.522,1.863-0.687
				c0.348-0.097,0.685-0.164,1.025-0.269C82.894,31.8,83.299,31.656,83.309,31.366z M78.868,25.333
				c0.02-0.124-0.222-0.251-0.349-0.318c-0.462-0.23-0.993-0.377-1.438-0.561c-0.306-0.124-0.625-0.268-0.975-0.355
				c-0.724-0.192-1.388-0.366-2.132-0.53c-0.358-0.077-0.715-0.203-1.073-0.271c-0.201-0.028-0.393-0.038-0.579-0.075
				c-0.173-0.049-0.337-0.117-0.511-0.166c-0.367-0.115-0.733-0.144-1.169-0.164c-0.396-0.028-0.781-0.096-1.177-0.152
				c-0.801-0.107-1.642-0.166-2.462-0.214c-0.415-0.021-0.84,0.01-1.274,0c-0.405-0.009-0.82-0.049-1.255-0.086
				c-0.425-0.031-0.858-0.031-1.303-0.031c-0.869,0-1.854-0.066-2.646-0.028c-1.013,0.049-1.95,0.154-2.905,0.174
				c-0.318,0.01-0.628,0.067-0.946,0.087c-0.415,0.029-0.83,0.01-1.254,0.067c-1.149,0.154-2.423,0.241-3.629,0.309
				c-0.406,0.028-0.792,0.115-1.188,0.155c-0.821,0.067-1.603,0.173-2.317,0.328c-0.386,0.077-0.782,0.086-1.168,0.164
				c-0.27,0.059-0.743,0.222-0.994,0.367c-0.174,0.097-0.319,0.261-0.493,0.416c-0.184,0.144-0.396,0.261-0.483,0.423
				c-0.048,0.087-0.067,0.204-0.086,0.262c-0.28,1.178,0.493,2.191,1.139,2.566c0.569,0.318,1.303,0.424,2.018,0.628
				c0.724,0.203,1.515,0.29,1.998,0.656c0.155,0.117,0.319,0.291,0.338,0.58c0.01,0.329-0.193,0.542-0.338,0.648
				c-0.26,0.192-0.791,0.356-1.254,0.415c-0.734,0.087-1.129-0.154-1.651-0.318c-0.261-0.077-0.541-0.154-0.743-0.262
				c-0.241-0.136-0.405-0.289-0.608-0.395c-0.213-0.115-0.657-0.261-0.859-0.154c-0.541,0.29-0.55,1.015-0.184,1.39
				c0.193,0.192,0.492,0.347,0.811,0.492c0.878,0.405,2.152,0.58,3.398,0.416c1.187-0.154,2.143-0.482,2.915-1.025
				c0.569-0.405,0.937-0.724,1.101-1.514c0.145-0.685-0.145-1.147-0.444-1.546c-0.512-0.675-1.188-0.966-2.095-1.207
				c-0.29-0.066-0.56-0.174-0.831-0.26c-0.299-0.1-0.589-0.137-0.927-0.184c-0.56-0.077-1.226-0.347-1.486-0.703
				c-0.396-0.551,0.135-0.888,0.666-1.042c0.367-0.117,0.724-0.242,1.004-0.319c0.357-0.098,0.743-0.115,1.139-0.184
				c1.245-0.174,2.355-0.318,3.504-0.521c0.396-0.077,0.83-0.06,1.255-0.106c0.434-0.037,0.859-0.02,1.303-0.028
				c0.203,0,0.434-0.059,0.627-0.067c0.405-0.02,0.812,0,1.207-0.048c0.79-0.098,1.583,0.028,2.384,0.066
				c0.405,0.021,0.802-0.02,1.207,0c1.592,0.087,3.128,0.29,4.585,0.482c0.725,0.087,1.429,0.271,2.134,0.396
				c0.366,0.059,0.714,0.126,1.062,0.213c0.328,0.087,0.646,0.213,0.978,0.3c0.664,0.164,1.332,0.367,1.979,0.56
				c0.663,0.192,1.322,0.473,2.018,0.532c0.714,0.049,1.486-0.04,2.316-0.04c0.541,0,1.187,0.012,1.709-0.049
				C78.549,25.487,78.848,25.459,78.868,25.333z M74.158,31.512c0.191-0.347-0.029-0.752-0.068-1.12
				c-0.009-0.154,0.029-0.378,0.021-0.551c-0.01-0.365-0.127-0.675-0.213-1.09c-0.065-0.3-0.065-0.646-0.097-1.023
				c-0.028-0.329-0.077-0.665-0.154-0.976c-0.068-0.301-0.174-0.637-0.376-0.744c-0.128-0.06-0.319-0.039-0.369-0.028
				c-0.201,0.028-0.433,0.184-0.587,0.3c-0.301,0.213-0.646,0.542-0.918,0.792c-0.154,0.144-0.327,0.251-0.473,0.377
				c-0.299,0.262-0.607,0.549-0.879,0.83c-0.268,0.27-0.596,0.606-0.926,0.79c-0.338,0.183-0.79,0.175-1.32,0.261
				c-0.137,0.02-0.9,0.098-0.908,0.443c0,0.262,0.31,0.291,0.33,0.57c0.027,0.262-0.164,0.395-0.281,0.569
				c-0.097,0.164-0.261,0.473-0.191,0.646c0.164,0.417,1.186,0.077,1.331,0c0.473-0.251,0.841-0.79,1.246-1.099
				c0.377-0.292,0.956-0.464,1.485-0.456c0.715,0.021,1.093,0.386,1.257,1.015c0.066,0.27,0.104,0.53,0.251,0.675
				C72.7,32.099,73.917,31.955,74.158,31.512z M65.44,31.53c0.125-0.104,0.261-0.328,0.212-0.549
				c-0.154-0.704-1.785-0.114-1.931-0.772c-0.048-0.192,0.039-0.308,0.126-0.532c0.067-0.164,0.125-0.337,0.184-0.462
				c0.26-0.581,0.627-1.188,0.878-1.739c0.116-0.25,0.405-0.636,0.347-0.955c-0.066-0.365-0.829-0.378-1.273-0.347
				c-0.279,0.028-0.589,0.049-0.811,0.204c-0.338,0.229-0.493,0.752-0.657,1.167c-0.175,0.444-0.396,0.869-0.58,1.256
				c-0.193,0.396-0.348,0.79-0.599,1.244c-0.191,0.347-0.58,0.946-0.415,1.372c0.114,0.27,0.559,0.27,0.992,0.3
				c0.483,0.021,0.861,0.011,1.235,0.011C63.983,31.725,64.968,31.907,65.44,31.53z M60.661,28.565c0-0.26,0-0.627-0.086-0.905
				c-0.039-0.127-0.174-0.319-0.241-0.406c-0.242-0.3-0.541-0.454-0.907-0.646c-0.191-0.097-0.405-0.241-0.597-0.301
				c-0.387-0.126-1.081-0.114-1.604-0.114c-0.021,0-0.029,0.02-0.029,0.02c-0.647,0.059-1.023,0.356-1.458,0.58
				c-0.155,0.076-0.318,0.136-0.444,0.23c-0.377,0.27-0.55,0.665-0.782,1.141c-0.086,0.174-0.183,0.462-0.241,0.703
				c-0.048,0.194-0.145,0.6-0.135,0.841c0.01,0.279,0.135,0.57,0.261,0.812c0.386,0.733,1.139,1.167,1.999,1.343
				c0.163,0.028,0.309,0.048,0.483,0.048c1.507,0.021,2.586-0.588,3.224-1.438C60.507,29.918,60.661,29.494,60.661,28.565z"/>
			<path fill="none" d="M82.913,30.97c0.201,0.027,0.405,0.144,0.396,0.396c-0.011,0.291-0.416,0.433-0.744,0.542
				c-0.34,0.104-0.676,0.174-1.026,0.269c-0.655,0.164-1.31,0.434-1.862,0.687c-0.599,0.279-1.228,0.503-1.814,0.762
				c-0.319,0.137-0.62,0.261-0.946,0.346c-0.327,0.088-0.656,0.164-0.992,0.281c-0.647,0.221-1.383,0.339-2.076,0.503
				c-1.351,0.309-2.741,0.463-4.401,0.56c-0.784,0.038-1.593,0.164-2.31,0.182c-0.752,0.021-1.534,0.029-2.326,0.05
				c-1.639,0.037-3.262-0.154-4.874-0.231c-0.396-0.02-0.792-0.06-1.197-0.104c-0.385-0.04-0.782-0.05-1.147-0.117
				c-0.733-0.115-1.486-0.241-2.268-0.308c-0.367-0.028-0.733-0.126-1.091-0.203s-0.714-0.136-1.071-0.192
				c-0.772-0.136-1.4-0.356-2.085-0.482c-0.309-0.059-0.685-0.155-1.004-0.281c-0.289-0.115-0.733-0.288-0.724-0.509
				c0-0.407,0.956-0.609,1.284-0.745c0.261-0.105,0.502-0.213,0.714-0.3c0.231-0.088,0.647-0.291,1.023-0.28
				c0.241,0.009,0.541,0.116,0.811,0.23c1.216,0.542,2.636,0.774,4.045,1.157c0.289,0.078,0.588,0.107,0.907,0.137
				c0.3,0.021,0.588,0.116,0.86,0.174c0.569,0.126,1.178,0.232,1.785,0.302c0.61,0.066,1.228,0.181,1.854,0.23
				c0.627,0.06,1.266,0.154,1.931,0.154c0.656,0,1.321-0.06,1.979-0.02c0.675,0.037,1.343,0.154,1.989,0.097
				c0.626-0.049,1.234-0.137,1.862-0.183c1.228-0.077,2.423-0.221,3.641-0.405c1.187-0.184,2.2-0.425,3.418-0.687
				c0.52-0.104,0.955-0.356,1.534-0.511c0.503-0.125,1.323-0.348,1.323-0.82c0-0.436-0.504-0.658-0.715-0.812
				c-0.232-0.182-0.531-0.56-0.822-0.694c-0.405-0.183-0.915-0.039-1.129,0.183c-0.356,0.396-0.3,1.139-0.821,1.388
				c-0.376,0.175-1.332,0.204-1.486-0.182c-0.076-0.192,0.049-0.502,0.126-0.715c0.096-0.25,0.213-0.423,0.301-0.606
				c0.114-0.222,0.182-0.436,0.278-0.627c0.098-0.194,0.221-0.347,0.318-0.58c0.098-0.241,0.154-0.463,0.253-0.666
				c0.086-0.192,0.192-0.376,0.289-0.589c0.252-0.531,0.463-1.216,1.022-1.419c0.319-0.115,0.774-0.135,1.268-0.135
				c0.503,0,1.004,0.02,1.37,0c0.85-0.059,1.409,0.191,1.815,0.656c0.241,0.279,0.415,0.647,0.378,1.09
				c-0.04,0.474-0.251,0.86-0.542,1.092c-0.378,0.3-1.207,0.425-1.14,0.975c0.027,0.263,0.229,0.436,0.394,0.571
				c0.223,0.174,0.436,0.356,0.754,0.395C82.449,30.989,82.7,30.923,82.913,30.97z M80.636,28.123
				c0.143-0.204,0.173-0.542,0.096-0.744c-0.105-0.29-0.521-0.482-1.022-0.415c-0.164,0.027-0.262,0.047-0.357,0.115
				c-0.232,0.153-0.511,0.618-0.482,0.975c0.038,0.482,0.599,0.494,1.07,0.436C80.23,28.451,80.51,28.297,80.636,28.123z"/>
			<path d="M80.731,27.381c0.076,0.201,0.047,0.541-0.097,0.742c-0.126,0.176-0.405,0.33-0.697,0.368
				c-0.471,0.06-1.031,0.049-1.069-0.434c-0.029-0.358,0.25-0.822,0.482-0.975c0.097-0.068,0.193-0.089,0.357-0.117
				C80.209,26.898,80.624,27.09,80.731,27.381z"/>
			<path fill="none" d="M78.52,25.015c0.127,0.067,0.368,0.194,0.349,0.318c-0.021,0.126-0.319,0.154-0.435,0.164
				c-0.521,0.061-1.168,0.049-1.709,0.049c-0.83,0-1.603,0.089-2.316,0.04c-0.695-0.061-1.353-0.34-2.018-0.532
				c-0.646-0.192-1.312-0.396-1.979-0.56c-0.329-0.087-0.647-0.213-0.976-0.3c-0.348-0.087-0.697-0.154-1.063-0.214
				c-0.703-0.125-1.409-0.309-2.134-0.396c-1.457-0.191-2.995-0.396-4.585-0.482c-0.405-0.02-0.802,0.021-1.207,0
				c-0.801-0.037-1.592-0.164-2.384-0.065c-0.396,0.047-0.802,0.028-1.207,0.047c-0.192,0.01-0.425,0.067-0.627,0.067
				c-0.444,0.01-0.869-0.009-1.303,0.028c-0.425,0.05-0.859,0.029-1.255,0.106c-1.148,0.202-2.258,0.347-3.504,0.521
				c-0.396,0.067-0.782,0.087-1.139,0.185c-0.28,0.077-0.637,0.201-1.004,0.318c-0.531,0.152-1.062,0.492-0.666,1.042
				c0.261,0.356,0.927,0.626,1.486,0.704c0.338,0.049,0.627,0.086,0.927,0.183c0.271,0.087,0.541,0.191,0.83,0.26
				c0.908,0.241,1.583,0.532,2.095,1.207c0.299,0.396,0.589,0.859,0.444,1.546c-0.164,0.79-0.531,1.108-1.101,1.514
				c-0.772,0.543-1.728,0.869-2.915,1.026c-1.245,0.164-2.52-0.012-3.398-0.417c-0.319-0.144-0.618-0.3-0.811-0.492
				c-0.367-0.377-0.357-1.101,0.183-1.39c0.203-0.105,0.646,0.038,0.859,0.154c0.203,0.106,0.367,0.261,0.608,0.395
				c0.203,0.105,0.483,0.183,0.743,0.262c0.521,0.164,0.917,0.405,1.651,0.319c0.463-0.06,0.994-0.223,1.255-0.416
				c0.145-0.106,0.348-0.318,0.338-0.648c-0.02-0.29-0.184-0.463-0.338-0.58c-0.483-0.365-1.274-0.453-1.998-0.656
				c-0.715-0.203-1.448-0.309-2.018-0.628c-0.647-0.376-1.419-1.389-1.139-2.567c0.019-0.057,0.039-0.174,0.087-0.261
				c0.087-0.164,0.299-0.278,0.482-0.424c0.174-0.153,0.319-0.317,0.493-0.415c0.25-0.144,0.724-0.309,0.994-0.367
				c0.386-0.077,0.782-0.087,1.168-0.164c0.714-0.155,1.497-0.261,2.316-0.328c0.396-0.04,0.782-0.127,1.188-0.154
				c1.207-0.068,2.48-0.155,3.629-0.31c0.424-0.059,0.84-0.038,1.254-0.067c0.318-0.02,0.628-0.077,0.945-0.087
				c0.956-0.02,1.894-0.125,2.907-0.173c0.788-0.039,1.775,0.028,2.644,0.028c0.445,0,0.877,0,1.304,0.03
				c0.435,0.037,0.85,0.077,1.257,0.087c0.433,0.009,0.859-0.021,1.272,0c0.822,0.047,1.661,0.105,2.462,0.212
				c0.396,0.058,0.783,0.125,1.179,0.153c0.434,0.021,0.802,0.049,1.167,0.164c0.176,0.049,0.34,0.117,0.511,0.165
				c0.185,0.039,0.378,0.048,0.581,0.076c0.356,0.068,0.715,0.194,1.071,0.271c0.743,0.164,1.41,0.338,2.134,0.53
				c0.346,0.088,0.665,0.231,0.975,0.356C77.526,24.638,78.058,24.781,78.52,25.015z"/>
			<path fill="none" d="M74.089,30.392c0.039,0.368,0.261,0.773,0.068,1.12c-0.241,0.443-1.459,0.587-1.844,0.182
				c-0.146-0.145-0.183-0.405-0.251-0.675c-0.164-0.627-0.541-0.994-1.256-1.015c-0.531-0.009-1.109,0.164-1.487,0.456
				c-0.405,0.306-0.771,0.848-1.244,1.099c-0.145,0.077-1.169,0.417-1.333,0c-0.066-0.174,0.098-0.482,0.194-0.646
				c0.113-0.175,0.307-0.308,0.277-0.569c-0.019-0.279-0.328-0.308-0.328-0.57c0.011-0.346,0.774-0.424,0.906-0.443
				c0.533-0.087,0.986-0.076,1.321-0.261c0.33-0.184,0.659-0.521,0.928-0.79c0.27-0.281,0.581-0.571,0.879-0.83
				c0.145-0.126,0.318-0.231,0.473-0.377c0.271-0.253,0.617-0.58,0.917-0.792c0.154-0.114,0.385-0.27,0.588-0.3
				c0.049-0.011,0.241-0.028,0.368,0.028c0.201,0.105,0.307,0.443,0.376,0.744c0.077,0.308,0.125,0.646,0.154,0.976
				c0.029,0.377,0.029,0.724,0.098,1.023c0.086,0.415,0.201,0.725,0.211,1.09C74.119,30.014,74.081,30.237,74.089,30.392z
				 M71.367,29.263c0.55,0.019,0.994-0.812,0.494-1.092c-0.05,0.009-0.127-0.011-0.184,0c-0.27,0.049-0.724,0.58-0.656,0.877
				C71.048,29.165,71.212,29.263,71.367,29.263z"/>
			<path d="M71.86,28.171c0.502,0.28,0.058,1.109-0.493,1.092c-0.155,0-0.319-0.098-0.347-0.215c-0.067-0.3,0.386-0.828,0.656-0.877
				C71.734,28.16,71.812,28.18,71.86,28.171z"/>
			<path fill="none" d="M65.652,30.979c0.049,0.223-0.087,0.446-0.212,0.551c-0.473,0.378-1.458,0.191-2.288,0.191
				c-0.376,0-0.752,0.011-1.235-0.01c-0.433-0.027-0.878-0.027-0.992-0.299c-0.164-0.425,0.222-1.024,0.415-1.371
				c0.251-0.454,0.406-0.851,0.598-1.246c0.182-0.385,0.406-0.811,0.581-1.254c0.164-0.417,0.318-0.938,0.657-1.169
				c0.222-0.154,0.53-0.174,0.811-0.204c0.444-0.028,1.207-0.02,1.273,0.35c0.059,0.317-0.23,0.703-0.347,0.954
				c-0.251,0.548-0.618,1.158-0.879,1.738c-0.058,0.126-0.114,0.299-0.183,0.462c-0.087,0.221-0.174,0.338-0.126,0.532
				C63.867,30.865,65.498,30.276,65.652,30.979z"/>
			<path fill="none" d="M60.575,27.66c0.086,0.278,0.086,0.646,0.086,0.905c0,0.929-0.154,1.352-0.56,1.903
				c-0.637,0.849-1.718,1.458-3.224,1.438c-0.174,0-0.319-0.021-0.482-0.05c-0.859-0.174-1.612-0.608-1.999-1.343
				c-0.125-0.242-0.251-0.53-0.261-0.812c-0.009-0.241,0.087-0.646,0.135-0.839c0.058-0.241,0.155-0.531,0.241-0.704
				c0.231-0.473,0.406-0.868,0.782-1.139c0.125-0.097,0.29-0.154,0.444-0.231c0.435-0.222,0.811-0.521,1.458-0.58
				c0,0,0.01-0.021,0.029-0.021c0.522,0,1.216-0.01,1.604,0.116c0.192,0.059,0.405,0.202,0.598,0.3
				c0.367,0.192,0.664,0.348,0.906,0.647C60.402,27.341,60.536,27.533,60.575,27.66z M58.364,29.562
				c0.252-0.348,0.503-0.704,0.435-1.343c-0.068-0.532-0.511-0.879-1.148-0.752c-0.454,0.086-0.928,0.531-1.101,0.859
				c-0.01,0.01-0.019,0.028-0.019,0.028c-0.184,0.424-0.562,1.457-0.193,1.902c0.395,0.502,1.361,0.087,1.66-0.204
				C58.113,29.946,58.23,29.745,58.364,29.562z"/>
			<path d="M58.799,28.22c0.068,0.637-0.183,0.993-0.435,1.343c-0.135,0.183-0.251,0.384-0.367,0.491
				c-0.299,0.291-1.265,0.706-1.66,0.204c-0.367-0.445,0.009-1.477,0.193-1.902c0,0,0.009-0.021,0.019-0.028
				c0.173-0.328,0.646-0.773,1.101-0.859C58.288,27.341,58.73,27.688,58.799,28.22z"/>
		</g>
	</g>
</g>
<polygon points="4.015,42.786 3.341,39.838 2.667,36.888 4.015,36.888 5.362,36.888 4.688,39.838 "/>
<polygon points="4.015,16.117 4.689,19.065 5.363,22.014 4.015,22.014 2.668,22.014 3.341,19.065 "/>
<line fill="none" stroke="#000000" stroke-width="0.35" x1="25.633" y1="42.903" x2="3.914" y2="42.903"/>
<line fill="none" stroke="#000000" stroke-width="0.35" x1="25.633" y1="15.994" x2="3.914" y2="15.994"/>
<rect x="1.924" y="27.276" fill="none" width="8.567" height="7.239"/>
<text transform="matrix(1 0 0 1 0.7974 32.7627)" font-family="'Times-Roman'" font-size="9.6532">D</text>
<line fill="none" stroke="#000000" stroke-width="0.35" x1="4.015" y1="22.014" x2="4.001" y2="24.475"/>
<line fill="none" stroke="#000000" stroke-width="0.35" x1="4.082" y1="34.61" x2="4.015" y2="37.237"/>
<line fill="none" stroke="#000000" stroke-width="0.35" x1="88.62" y1="15.023" x2="88.62" y2="3.807"/>
<line fill="none" stroke="#000000" stroke-width="0.35" x1="30.339" y1="15.023" x2="30.339" y2="3.807"/>
<polygon points="88.442,3.892 85.495,4.565 82.545,5.24 82.545,3.892 82.545,2.546 85.495,3.219 "/>
<polygon points="30.522,3.892 33.471,3.219 36.419,2.545 36.419,3.892 36.419,5.238 33.471,4.564 "/>
<rect x="58.819" y="1.58" fill="none" width="8.567" height="7.24"/>
<text transform="matrix(1 0 0 1 57.6914 6.8232)" font-family="'Times-Roman'" font-size="9.6532">L</text>
<line fill="none" stroke="#000000" stroke-width="0.35" x1="36.011" y1="3.892" x2="56.128" y2="3.892"/>
<line fill="none" stroke="#000000" stroke-width="0.35" x1="64.736" y1="3.892" x2="82.828" y2="3.892"/>
</svg>
